<?xml version="1.0" standalone="no"?>
<!DOCTYPE svg PUBLIC "-//W3C//DTD SVG 1.1//EN" "http://www.w3.org/Graphics/SVG/1.1/DTD/svg11.dtd" >
<svg xmlns="http://www.w3.org/2000/svg">
<metadata>
This is a custom SVG webfont generated by Font Squirrel.
Copyright   : Copyright c Grayhood 2011 All rights reserved
Designer    : Daniel Gneiding
Foundry URL : httpwwwlosttypecom
</metadata>
<defs>
<font id="RibbonRegular" horiz-adv-x="1228" >
<font-face units-per-em="2048" ascent="1638" descent="-410" />
<missing-glyph horiz-adv-x="500" />
<glyph unicode=" " />
<glyph unicode="!" horiz-adv-x="933" d="M330 74l135 -135l133 135l-133 133zM330 233v1375l125 -125v-1125zM473 358v1125l125 125v-1375z" />
<glyph unicode="&#x22;" d="M473 1210v394h125v-269zM616 1210v394h125v-269z" />
<glyph unicode="#" horiz-adv-x="1957" d="M84 330l127 125h350l-88 -504l-145 -103l84 482h-328zM84 598h377l69 401h-374l127 125h397l-115 -651h-354zM156 1268h422l94 528l100 -145l-88 -508h-401zM492 -53l88 508h651l-88 -504l-146 -103l84 482h-395l-94 -529zM584 473l114 651h652l-115 -651h-651zM700 1143 l91 504l145 102l-86 -481h397l92 528l103 -145l-90 -508h-652zM733 598h395l72 401h-397zM1159 -53l90 508h402l125 -125h-422l-92 -529zM1251 473l117 651h354l125 -125h-374l-72 -401h375l-125 -125h-400zM1370 1143l90 504l144 102l-84 -481h327l-125 -125h-352z" />
<glyph unicode="$" d="M131 471v125l127 -125q0 -141 97.5 -240.5t236.5 -103.5v-180l-125 -125v125v73q-147 45 -241.5 169t-94.5 282zM131 1157q0 195 141 326q86 80 195 106v72v127l125 -127v-178q-141 -4 -237.5 -96.5t-96.5 -229.5q0 -129 101.5 -224t232.5 -134v-654q-133 4 -225.5 98.5 t-92.5 227.5l127 125v-125q0 -92 66 -147v389q-98 41 -180 116q-156 142 -156 328zM274 1157q0 131 92.5 217t225.5 90v-647q-127 39 -222.5 129t-95.5 211zM401 1157q0 -66 66 -129v266q-2 0 -6 -4t-6 -4q-54 -53 -54 -129zM610 -53v180q139 4 236.5 96t97.5 230 q0 129 -100.5 223t-233.5 135v653q131 -4 223.5 -99t92.5 -226l-125 -125v125q0 88 -66 147v-389q98 -43 183 -117q152 -139 151 -327q0 -201 -141 -326q-80 -76 -193 -109v-71v-125zM610 145v648q129 -41 223.5 -130.5t92.5 -209.5q0 -131 -91.5 -217.5t-224.5 -90.5z M610 1483v178l125 127v-127v-74q145 -43 239.5 -167t94.5 -281v-125l-125 125q0 139 -97.5 239.5t-236.5 104.5zM735 313l10 11q55 51 56 129q0 66 -66 129v-269z" />
<glyph unicode="%" horiz-adv-x="2299" d="M152 0l1794 1794v-176l-1618 -1618h-176zM152 1366q0 199 137 332q133 137 332 137q197 0 329 -137q137 -133 137 -332q0 -195 -137 -332t-329 -137q-195 0 -332 137t-137 332zM276 1366q0 -141 100.5 -241.5t244.5 -100.5q141 0 241.5 100.5t100.5 241.5 q0 143 -100.5 243.5t-241.5 100.5q-143 0 -244 -100.5t-101 -243.5zM295 1366q0 135 95 230.5t231 95.5q133 0 228 -95.5t95 -230.5t-94 -229.5t-229 -96.5q-135 2 -230.5 96.5t-95.5 229.5zM340 -12l1618 1618h178l-1796 -1796v178zM420 1366q0 -80 57 -141q57 -57 144 -58 q84 0 141 58q57 61 57 141q0 84 -57 141q-59 59 -141 60q-84 0 -144 -60q-57 -57 -57 -141zM1198 238q0 199 137 331q133 137 332 138q195 0 332 -137.5t137 -331.5q0 -190 -137 -332q-141 -137 -332 -137q-195 0 -332 137t-137 332zM1323 238q0 -141 100.5 -241.5 t243.5 -100.5q141 0 241.5 100t100.5 242q0 143 -100.5 243.5t-241.5 100.5q-143 0 -243.5 -100.5t-100.5 -243.5zM1341 237.5q0 135.5 95.5 230.5t230.5 95t230.5 -95t95.5 -230.5t-95.5 -230.5t-230.5 -95t-230.5 95t-95.5 230.5zM1466 238q0 -82 60 -142q57 -57 141 -57 q80 0 141 57q57 57 58 142q0 88 -58 141q-59 59 -141 59q-86 0 -141 -59q-60 -55 -60 -141z" />
<glyph unicode="&#x26;" horiz-adv-x="1517" d="M160 545q0 162 88 311q78 131 207 217l-27 45q-70 121 -37 254q35 133 155 204t253 38q133 -35 203.5 -155t37.5 -253q-33 -135 -153 -205q-31 -18 -58 -32l277 -467q10 45 10 82q0 84 -45 159l-63 107l172 -43q61 -106 61 -223q0 -193 -137 -326l-451 762q154 76 170 88 q74 47 95 129q20 84 -23 157.5t-127 96.5q-84 20 -157.5 -23t-96.5 -127q-23 -86 23 -159l92 -154q-10 -6 -39 -21.5t-45 -25.5q-119 -72 -189.5 -189.5t-70.5 -246.5q0 -113 57 -209q66 -109 182.5 -169.5t249.5 -60.5q139 0 250 66q35 20 78 57l110 -188l-43 -172 l-108 180q-129 -68 -287 -67q-162 0 -305 71q-152 80 -236 219q-73 123 -73 273zM303 545q0 123 68.5 237.5t181.5 182.5q82 47 84 47l63 -107l154 -260l238 -399q-31 -31 -78 -58q-106 -63 -240 -63q-127 0 -241.5 58.5t-176.5 162.5q-53 93 -53 199zM428 545 q0 -76 37 -135q43 -74 127 -117q90 -43 182 -43q84 0 150 33l-332 559q-76 -59 -113 -123q-51 -84 -51 -174zM530 1335q20 76 88 117t146 23q78 -20 118 -89t19 -145q-18 -78 -88 -117q-23 -16 -46.5 -28.5t-60 -28.5t-63.5 -31l-63 109l-29 47q-39 65 -21 143zM651 1305 q-6 -25 8 -50l33 -55l4 2q4 2 4 4q35 14 50 27q20 12 30 39q6 27 -8 50.5t-41 29.5q-27 8 -49.5 -6t-30.5 -41zM1114 242q145 139 146 342q0 127 -66 231v2l45 170l64 -106q82 -139 81 -297q0 -162 -77 -295q-25 -41 -39 -60l131 -223l-170 43z" />
<glyph unicode="'" d="M473 1210v394h125v-269z" />
<glyph unicode="(" horiz-adv-x="970" d="M152 803q0 326 123.5 618.5t345.5 513.5l88 88v-176q-205 -205 -319 -475t-114 -569t114 -568.5t319 -474.5v-178l-88 88v2q-221 221 -345 514t-124 617zM295 803q0 297 112.5 563t313.5 467l2 2h176l-88 -90q-184 -184 -287.5 -427t-103.5 -515.5t103.5 -515 t287.5 -426.5l88 -88h-178q-201 203 -313.5 469t-112.5 561z" />
<glyph unicode=")" horiz-adv-x="946" d="M51 -227l88 88q184 184 287.5 426.5t103.5 515t-103 515.5t-288 427l-88 88h176q203 -201 315.5 -467t112.5 -563q0 -295 -112.5 -561.5t-315.5 -468.5h-176zM242 -240q205 205 318.5 474.5t113.5 568.5t-114 569t-318 475v176l88 -88q221 -221 345 -514t124 -618 q0 -324 -124 -616.5t-345 -516.5l-88 -88v178z" />
<glyph unicode="*" horiz-adv-x="1443" d="M127 670l125 125h448l-317 -318h-176l190 193h-270zM127 938h270l-190 190h176l317 -315h-448zM397 289v176l316 317v-448l-125 -125v270zM397 1141v178l191 -191v269l125 -125v-447zM731 334v448l316 -317v-176l-191 190v-270zM731 825v447l125 127v-271l191 191v-178z M743 795h447l127 -125h-270l190 -193h-178zM743 813l316 315h178l-190 -190h270l-127 -125h-447z" />
<glyph unicode="+" horiz-adv-x="1413" d="M102 670l125 125h461v-461l-127 -125v461h-459zM102 938h459v461l127 -127v-459h-461zM705 334v461h460l125 -125h-459v-461zM705 813v459l126 127v-461h459l-125 -125h-460z" />
<glyph unicode="," horiz-adv-x="370" d="M70 0v268h268v-268l-125 -125v125h-143z" />
<glyph unicode="-" horiz-adv-x="1460" d="M139 670l125 125h938l125 -125h-1188zM139 938h1188l-125 -125h-938z" />
<glyph unicode="." horiz-adv-x="411" d="M66 0h268v268h-268v-268z" />
<glyph unicode="/" horiz-adv-x="2084" d="M57 0l1794 1794v-176l-1615 -1618h-179zM248 -12l1618 1618h176l-1794 -1796v178z" />
<glyph unicode="0" d="M141 469v668q0 195 137.5 332t332 137t331.5 -137.5t137 -331.5v-668q0 -190 -137 -332q-141 -137 -331.5 -137t-331.5 137q-138 142 -138 332zM266 469q0 -143 100.5 -243.5t244 -100.5t243.5 100.5t100 243.5v668q0 143 -100 243.5t-243.5 100.5t-244 -100.5 t-100.5 -243.5v-668zM285 469v668q0 135 95 230t230 95t230.5 -95t95.5 -230v-668q0 -135 -95.5 -230.5t-230.5 -95.5t-230 95.5t-95 230.5zM410 469q0 -82 59 -141.5t141 -59.5t141.5 59.5t59.5 141.5v668q0 86 -59 141q-59 59 -141.5 59t-141.5 -59q-59 -55 -59 -141v-668 z" />
<glyph unicode="1" d="M463 0v1337l125 125v-1337zM606 125v1356l125 125v-1606z" />
<glyph unicode="2" d="M137 0v279q0 141 68 249q57 92 157 164q66 47 180.5 105.5t145.5 76.5q84 47 105 93q14 25 14 55v115q0 86 -59 141q-59 59 -141.5 59t-141.5 -59q-59 -55 -59 -141v-125l-125 125q0 135 95 230t230 95t230.5 -95t95.5 -230v-115q0 -59 -22.5 -107.5t-73 -88.5 t-93.5 -64.5t-116 -63.5l-25 -12q-78 -39 -127 -69.5t-104.5 -80t-82 -114t-26.5 -143.5v-154h682l125 -125h-932zM137 1012v125q0 195 137.5 332t332 137t331.5 -137.5t137 -331.5v-115q0 -150 -94 -254q-57 -70 -186 -143q-31 -16 -94.5 -48t-96.5 -49.5t-71.5 -44 t-61.5 -49.5q-63 -66 -65 -155v-11h663l-125 -125h-663v136q0 78 25.5 138t78.5 107t100 77t125 69q182 92 240 143q98 88 100 209v115q0 143 -100 243.5t-243.5 100.5t-244 -100.5t-100.5 -243.5z" />
<glyph unicode="3" d="M150 469v125l124 -125q0 -143 100.5 -243.5t244 -100.5t244 100.5t100.5 243.5q0 156 -117 258q-27 23 -41 31q-53 33 -109 45q84 23 148 76q119 102 119 258q0 143 -100.5 243.5t-244 100.5t-244 -100.5t-100.5 -243.5l-124 -125v125q0 195 137 332t331.5 137 t331.5 -137.5t137 -331.5q0 -193 -137 -330l-4 -4h2l2 -2q137 -141 137 -331.5t-137 -332.5q-141 -137 -331.5 -137t-331.5 137q-137 142 -137 332zM293 469l125 125v-125q0 -82 59.5 -141.5t141 -59.5t141 59.5t59.5 141.5t-59.5 141.5t-141.5 59.5h-124l124 125 q135 0 230.5 -95.5t95.5 -230.5t-95 -230.5t-230.5 -95.5t-230.5 95.5t-95 230.5zM293 1137q0 135 95 230t230.5 95t230.5 -95t95 -230q0 -133 -95 -228.5t-231 -97.5l-124 127h124q80 0 142 57q59 59 59 142q0 86 -59 141q-59 59 -141 59t-142 -59q-59 -55 -59 -141v-125z " />
<glyph unicode="4" horiz-adv-x="1474" d="M92 545l1061 1061v-940h270l-125 -125h-270v764l-780 -783h762v-397l-125 -125v397h-647zM291 541l719 719v-719h-719zM594 666h291v292zM1028 125v397h270l125 -125h-270v-397z" />
<glyph unicode="5" d="M135 469v125l125 -125q0 -143 100.5 -243.5t244 -100.5t243.5 100.5t100 243.5v170q0 143 -100 243.5t-244 100.5q-211 0 -325 -123v602h663l125 -125h-664v-260q96 31 201 31q190 0 332 -137q137 -137 137 -332v-170q0 -190 -137 -332q-141 -137 -331.5 -137t-332.5 137 q-137 142 -137 332zM135 715v891h932l-125 -125h-682v-641zM279 469l124 125v-125q0 -82 59.5 -141.5t141.5 -59.5t141.5 59.5t59.5 141.5v170q0 82 -59.5 141.5t-141.5 59.5q-78 0 -130 -42t-71 -83l-120 123q29 33 63 55q109 72 258 72q135 0 230.5 -95.5t95.5 -230.5 v-170q0 -135 -95.5 -230.5t-230.5 -95.5t-230 95.5t-95 230.5z" />
<glyph unicode="6" d="M162 598l276 963l35 120l84 -153l-274 -963v-2q-14 -43 -15 -94q0 -113 69 -205t179 -125q45 -14 96 -14q113 0 205 68.5t125 181.5q14 53 14 94q0 113 -68.5 205t-180.5 125q-43 14 -95 14q-84 0 -159.5 -40t-122.5 -109l243 858l158 86l-35 -121l-159 -555 q109 16 204 -12q186 -51 281 -224q94 -168 41 -356q-55 -188 -223 -281q-172 -96 -359 -41q-182 51 -280 224q-94 174 -39 356zM287 469q0 43 12 90q31 106 119 171t194 65q43 0 90 -13q106 -31 171 -119t65 -194q0 -43 -12 -90q-33 -106 -120 -171t-194 -65q-43 0 -90 13 q-106 31 -170.5 119t-64.5 194zM420 524q-25 -78 16 -151q39 -72 121 -97q82 -23 152 19q72 39 96 119q20 78 -19 151q-39 72 -118 97q-84 23 -152 -19q-71 -39 -96 -119z" />
<glyph unicode="7" d="M135 1337l125 125h664v-209q0 -80 -30 -137t-61.5 -81.5t-95.5 -63.5q-14 -8 -20 -13q-68 -41 -107 -75.5t-73.5 -111.5t-34.5 -181v-465l-125 -125v590q-2 213 112 346q20 23 42 42t45.5 36.5t39 28t42 25.5t32.5 19q59 39 76 60q31 37 31 106v84h-662zM135 1606h932 v-353q0 -94 -33 -180q-31 -74 -90 -129q-31 -29 -65.5 -53.5t-70.5 -46t-50 -31.5q-47 -29 -72 -63q-41 -57 -41 -160v-590l-125 125v465q0 102 33 175t69.5 105.5t104.5 71.5q57 35 80.5 51.5t62.5 55t54.5 88t15.5 116.5v228h-680z" />
<glyph unicode="8" d="M150 469q0 190 137 332l2 2h2l-4 4q-137 137 -137 330q0 195 137 332t331.5 137t331.5 -137.5t137 -331.5q0 -193 -137 -330l-4 -4h2l2 -2q137 -141 137 -332q0 -195 -137 -332t-331.5 -137t-331.5 137t-137 332zM274 469q0 -143 100.5 -243.5t244 -100.5t244 100.5 t100.5 243.5q0 121 -76 214t-191 120q115 27 191 120t76 214q0 143 -100.5 243.5t-244 100.5t-244 -100.5t-100.5 -243.5q0 -121 76 -214.5t191 -119.5q-115 -27 -191 -120t-76 -214zM293 469q0 133 94 228.5t227 97.5h4h5q133 -2 227 -97.5t94 -228.5q0 -135 -95 -230.5 t-230.5 -95.5t-230.5 95.5t-95 230.5zM293 1137q0 135 95 230t230.5 95t230.5 -95t95 -230q0 -133 -94 -227.5t-227 -96.5h-5h-4q-133 2 -227 96.5t-94 227.5zM418 469q0 -86 59 -141q59 -59 141 -59.5t142 59.5q59 55 59 141q0 82 -59 141q-59 57 -142 60v-2v2 q-86 -4 -141 -60q-59 -59 -59 -141zM418 1137q0 -82 59 -142q61 -57 141 -57t142 57q59 59 59 142q0 86 -59 141q-59 59 -141 59t-142 -59q-59 -55 -59 -141z" />
<glyph unicode="9" d="M129 1137q0 195 137 332t332 137q190 0 326 -131v-228q-35 102 -124 168t-202 66q-143 0 -243.5 -100.5t-100.5 -243.5q0 -141 100.5 -241.5t243.5 -100.5q113 0 202 65.5t124 167.5v-903l-125 -125v713q-90 -41 -201 -45q-197 4 -332 139q-137 137 -137 330zM272 1137 q0 135 95.5 230t230.5 95t229.5 -94t96.5 -229v-2q0 -133 -95.5 -228.5t-230.5 -95.5t-230.5 95.5t-95.5 228.5zM397 1137q0 -82 60 -142q61 -57 141 -57t141 57q59 59 60 142q0 86 -60 141q-59 59 -141 59t-141 -59q-60 -55 -60 -141zM942 125v1012v2v331l125 125v-1595z " />
<glyph unicode=":" d="M463 0h268v268h-268v-268zM463 526h268v269h-268v-269z" />
<glyph unicode=";" d="M473 0v268h268v-268l-125 -125v125h-143zM473 526h268v269h-268v-269z" />
<glyph unicode="&#x37e;" d="M473 0v268h268v-268l-125 -125v125h-143zM473 526h268v269h-268v-269z" />
<glyph unicode="&#x3c;" horiz-adv-x="1638" d="M96 817l1301 752l-45 -170l-1004 -582l1004 -579l45 -170zM383 817l977 -563l172 47l-897 516l897 520l-172 45z" />
<glyph unicode="=" horiz-adv-x="1413" d="M102 477h1190l-125 127h-938zM102 748h1190l-125 -127h-938zM102 860l127 125h938l125 -125h-1190zM102 1128h1190l-125 -124h-938z" />
<glyph unicode="&#x3e;" horiz-adv-x="1628" d="M119 313l172 -45l977 566l-977 563l-172 -47l897 -516zM254 82l45 170l1004 582l-1004 579l-45 170l1300 -749z" />
<glyph unicode="?" d="M180 973q-70 180 6 358q78 180 258 250q180 74 359 -4q180 -78 250 -258q35 -90 32 -178q0 -100 -35.5 -185.5t-69.5 -125t-95 -99.5q-55 -53 -80 -83t-46.5 -86t-21.5 -130v-78v-125l-125 125v78q0 74 14.5 133.5t46.5 108.5t54.5 74.5t69.5 70.5q57 57 82.5 88 t53.5 94.5t28 139.5q2 102 -54.5 190t-152.5 129q-131 57 -263.5 5t-189.5 -183q-55 -133 -2 -262v-2l-72 -162zM315 1026q-51 127 4 248q51 125 177.5 174t248.5 -4q92 -39 145.5 -123t51.5 -180q0 -72 -25.5 -132.5t-52 -93t-80.5 -81.5q-63 -61 -95 -99.5t-63.5 -120.5 t-31.5 -182v-78l-125 -125v125v78q0 94 19.5 173t60.5 141.5t69.5 95t77.5 82.5q70 66 95.5 107.5t25.5 109.5q0 43 -14 78q-29 76 -107 110q-74 33 -153 2q-78 -31 -109 -106q-35 -78 -2 -154l45 -117zM469 66l133 -136l135 136l-135 135z" />
<glyph unicode="@" horiz-adv-x="1906" d="M131 813q0 338 240 578q233 233 577 233q346 0 580 -233q240 -240 239 -578q0 -143 -51 -285l-6 -12q-51 -119 -149 -190q-100 -72 -215 -72h-3q-162 0 -276 121q-14 14 -39 47q-37 -12 -80 -12q-111 0 -189.5 78.5t-78.5 189.5v270q0 111 79 190t189 79q113 0 191 -78 l88 86l-8 -547q0 -74 43 -117q37 -39 81 -39q33 0 58 21q41 31 63 82q33 84 33 188q0 227 -160.5 390t-388.5 163q-225 0 -386 -163t-161 -390t161 -389t386 -162h127l-127 -123q-279 0 -476.5 198t-197.5 476.5t198 476t476.5 197.5t477 -197.5t198.5 -476.5 q0 -119 -41 -229q-78 -186 -240 -187q-102 0 -174 76q-76 82 -75 205h-2v270q0 59 -42 101.5t-101.5 42.5t-100.5 -42t-43 -102v-270q0 -59 42 -101t101 -42q92 0 131 83q18 -98 78 -155q80 -84 186 -84q78 0 147 49t109 150q41 113 41 235q0 287 -202.5 489.5t-489.5 202.5 q-285 0 -487.5 -202.5t-202.5 -489.5t203 -489.5t487 -202.5l127 -119h-127q-344 0 -577 234q-240 239 -240 577zM823 678v270q0 51 37 88t88 37q53 0 90 -37t37 -88v-270q0 -51 -38 -88t-89 -37t-88 37t-37 88zM940 678q0 -8 8 -8q10 0 10 8v270q0 8 -10 8q-8 0 -8 -8v-270 z" />
<glyph unicode="A" horiz-adv-x="1581" d="M141 4l158 387h-158l127 125h215l-178 -442zM141 659h267l380 949l383 -949h267l-127 -124h-224l-299 737l-296 -737h-224zM322 68l182 448h571l182 -448l-69 -164l-197 487h-403l-197 -487zM510 535l278 690l281 -690h-559zM696 659h187l-95 230zM1096 516h217l125 -125 h-158l158 -387l-164 70z" />
<glyph unicode="B" d="M141 0v1606h469q195 0 332 -137.5t137 -331.5q0 -190 -137 -332l-2 -2h-2l4 -4q137 -137 137 -332q0 -193 -137 -330t-332 -137h-469zM266 125h344q143 0 243.5 100.5t100.5 243.5q0 121 -75.5 214t-190.5 120q115 27 190.5 120t75.5 214q0 143 -100 243.5t-244 100.5 h-344v-1356zM285 143v652h329q133 -4 227.5 -98.5t94.5 -227.5q0 -135 -95.5 -230.5t-230.5 -95.5h-325zM285 811v651h325q135 0 230.5 -95t95.5 -230q0 -129 -101.5 -226.5t-220.5 -99.5h-329zM410 268h200q82 0 142 60q59 55 59 139t-59 143q-57 57 -140 58h-202v-400z M410 938h200q84 0 142 57q59 59 59 142q0 86 -59 141q-59 59 -142 59h-200v-399z" />
<glyph unicode="C" d="M150 469v670q0 190 137 331q141 137 331 138q195 0 332 -137.5t137 -331.5v-127l-124 127q0 141 -100.5 241.5t-244.5 100.5q-141 0 -241.5 -100.5t-100.5 -241.5v-670q0 -141 100.5 -241.5t241.5 -100.5q143 0 244 100.5t101 241.5l124 127v-127q0 -195 -137 -332 t-332 -137q-190 0 -331 137q-137 142 -137 332zM293 469v670q0 133 95 229t230.5 96t230.5 -96t95 -229l-125 -125v125q0 82 -59 141q-57 57 -142 57q-80 0 -141 -57q-59 -63 -59 -141v-670q0 -78 59 -141q57 -57 141 -58q88 0 142 58q59 59 59 141v127l125 -127 q0 -135 -95 -229.5t-231 -96.5q-135 2 -230 96.5t-95 229.5z" />
<glyph unicode="D" d="M152 0v1606h469q195 0 332 -137.5t137 -331.5v-668q0 -195 -138 -332q-141 -137 -331 -137h-469zM276 125h345q143 0 243.5 100.5t100.5 243.5v668q0 143 -100.5 243.5t-243.5 100.5h-345v-1356zM295 143v1319h326q135 0 230 -95t95 -230v-668q0 -135 -95 -230.5 t-230 -95.5h-326zM420 268h201q82 0 141 60q55 53 59 141v668q-4 88 -59 141q-59 59 -141 59h-201v-1069z" />
<glyph unicode="E" d="M152 0v1608h933l-127 -127h-679v-1354h679l127 -127h-933zM297 143v672h537l124 -125h-536v-420h663l-127 -127h-661zM297 834v630h661l127 -127h-663v-379h536l-124 -124h-537z" />
<glyph unicode="F" d="M147 0v1606h932l-125 -125h-682v-1356zM291 125v688h538l125 -125h-538v-688zM291 831v631h663l125 -125h-663v-381h538l-125 -125h-538z" />
<glyph unicode="G" d="M139 467v670q0 195 137.5 332t329.5 137q195 0 332 -137.5t137 -331.5v-125l-125 125q0 143 -100 243.5t-244 100.5q-141 0 -241.5 -100.5t-100.5 -243.5v-670q0 -141 100.5 -241.5t241.5 -100.5q143 0 243.5 100.5t100.5 241.5v240h-248l-124 124h497v-364 q0 -197 -137 -330q-133 -137 -332 -137q-197 0 -330 137q-137 133 -137 330zM283 467v670q0 135 95 230t228 95q135 0 230.5 -95t95.5 -230l-125 -125v125q0 80 -57 141q-59 59 -144 59q-82 0 -141 -59q-57 -61 -57 -141v-670q0 -82 57 -139q59 -59 141 -60q84 0 144 60 q57 57 57 139v96h-229l124 125h230v-221q0 -133 -95.5 -228.5t-230.5 -95.5q-133 0 -228 95.5t-95 228.5z" />
<glyph unicode="H" d="M152 0v1606l124 -125v-1356zM295 125v690h645v-690l-125 -125v688h-395v-688zM295 831v650l125 125v-650h395v650l125 -125v-650h-645zM958 125v1356l125 125v-1606z" />
<glyph unicode="I" horiz-adv-x="966" d="M141 0l125 125h436l125 -125h-686zM141 268h209v1069h-209l125 127h209v-2v-1319h-209zM141 1606h686l-125 -125h-436zM494 143v1321h208l125 -127h-209v-1069h209l-125 -125h-208z" />
<glyph unicode="J" d="M150 469v125l126 -125q0 -143 100.5 -243.5t241.5 -100.5q143 0 244 100.5t101 243.5v1012l124 125v-1137q0 -199 -137 -332q-133 -137 -332 -137q-195 0 -331.5 137t-136.5 332zM293 469l127 125v-125q0 -84 57 -141q59 -59 141 -60q86 0 142 60q59 55 59 141v1137 l125 -125v-1012q0 -135 -95 -230.5t-230.5 -95.5t-230.5 95.5t-95 230.5z" />
<glyph unicode="K" d="M150 0v1608l124 -127v-1356zM293 125v651l598 -598v-178l-473 473v-473zM293 801l610 610h178l-610 -610l610 -611h-178zM293 827v654l125 127v-480l473 474v-177z" />
<glyph unicode="L" d="M156 0v1612l125 -125v-1362h682l124 -125h-931zM299 143v1344l125 125v-1344h663l-124 -125h-664z" />
<glyph unicode="M" horiz-adv-x="1570" d="M100 0v1606l682 -963l684 963v-1606l-127 125v1087l-557 -786l-557 786v-1087zM244 125v1030l538 -760l541 760v-1030l-127 -125v762l-414 -584l-413 584v-762z" />
<glyph unicode="N" d="M137 0v1612l672 -846v842l125 -125v-1077l-670 845v-1124zM281 127v1073l671 -846v1129l125 125v-1614l-669 846v-840z" />
<glyph unicode="O" d="M135 469v670q0 195 137.5 332t331.5 137q193 0 330 -138q139 -139 139 -331v-670q0 -193 -139 -332q-137 -137 -330 -137q-195 0 -332 137t-137 332zM260 469q0 -141 100.5 -241.5t243.5 -100.5q141 0 241.5 100.5t100.5 241.5v670q0 141 -100.5 241.5t-241.5 100.5 q-143 0 -243.5 -100.5t-100.5 -241.5v-670zM279 469v670q0 133 95 229t230 96q133 0 228.5 -96t95.5 -229v-670q0 -135 -94.5 -229.5t-229.5 -96.5q-135 2 -230 96.5t-95 229.5zM403 469q0 -80 58 -141q57 -57 143 -58q84 0 141 58q57 61 58 141v670q0 80 -58 141 q-61 57 -141 57q-82 0 -143 -57q-57 -61 -58 -141v-670z" />
<glyph unicode="P" d="M158 0v1606h469q195 0 332 -137.5t137 -331.5q0 -190 -138 -332q-137 -137 -329 -137h-2h-201v-668l-125 125v670h326q143 0 243.5 100t100.5 242q0 143 -100.5 243.5t-243.5 100.5h-344v-1356zM301 811v217v434h326q135 0 230 -95t95 -230.5t-95 -230.5t-230 -95h-201 h-125zM426 936h203q84 4 139 59q59 59 59 142q0 86 -59 141q-59 59 -141 59h-201v-401z" />
<glyph unicode="Q" horiz-adv-x="1292" d="M129 469v668q0 195 137 331q133 137 332 138q195 0 332 -137.5t137 -331.5v-668q0 -115 -53 -215l256 -254h-178l-240 240q45 45 68 110q23 57 22 119v668q0 143 -100.5 243.5t-243.5 100.5t-243.5 -100.5t-100.5 -243.5v-668q0 -143 100.5 -243.5t243.5 -100.5 q70 0 137 29q61 29 105 71l239 -237v-178l-252 251q-106 -61 -229 -61q-195 0 -332 137t-137 332zM272 469v668q0 135 95.5 230t230.5 95t230.5 -95t95.5 -230v-668q0 -55 -19 -104q-20 -61 -65 -113l-13 -12q-49 -49 -106 -72q-55 -25 -123 -25q-135 0 -230.5 95.5 t-95.5 230.5zM397 469q0 -82 60 -141q55 -59 141 -60q82 0 141.5 59.5t59.5 141.5v668q0 84 -60 143q-61 57 -141 57q-84 0 -141 -57q-59 -59 -60 -143v-668z" />
<glyph unicode="R" d="M145 0v1606h469q197 0 330 -138q139 -135 139 -331q0 -193 -139 -332l-2 -2l2 -2q139 -139 139 -332v-469l-127 125v344q0 156 -116 258q-68 57 -148 76q84 18 148 76q117 102 116 258q0 143 -100 243.5t-242 100.5h-344v-1356zM289 125v670h325q119 -2 209 -78 q115 -98 115 -248v-344l-125 -125v469q0 80 -57 141q-61 57 -142 58h-200v-668zM289 811v217v434h325q133 0 228.5 -95t95.5 -230q0 -150 -115 -248q-90 -78 -209 -78h-200h-125zM414 938h200q80 0 142 57q57 61 57 142q0 84 -57 141q-59 59 -142 59h-200v-399zM614 795z " />
<glyph unicode="S" d="M131 469v125l125 -125q0 -141 100.5 -242.5t243.5 -101.5t242 92q100 90 100 234q0 133 -113 235q-92 86 -227 125q-135 41 -231.5 133t-96.5 211q0 131 93.5 219t232.5 88q133 0 228.5 -95t95.5 -228v-2l-125 -125v127q0 82 -58.5 140t-140.5 58q-88 0 -144.5 -51 t-56.5 -131q0 -76 75 -136.5t163 -86.5q164 -47 278 -154q154 -141 154 -327q0 -195 -141 -326q-137 -125 -328 -125q-195 0 -332 137t-137 332zM131 1155q0 195 139 328q135 123 330 123t332 -137.5t137 -329.5v-127l-127 127q0 141 -100.5 241.5t-241.5 100.5 q-143 0 -244 -90q-100 -94 -100 -236q0 -127 100.5 -223t239.5 -137q135 -41 231.5 -133.5t96.5 -210.5q0 -131 -93.5 -219.5t-230.5 -88.5q-135 0 -230.5 95.5t-95.5 230.5l125 125v-125q0 -84 58.5 -142.5t142.5 -58.5q86 0 142.5 52.5t56.5 130.5q0 74 -72 135t-166 88 q-160 47 -276 153q-154 142 -154 328z" />
<glyph unicode="T" d="M152 1337l124 125h334v-1337l-125 -125v1337h-333zM152 1606h938l-127 -125h-687zM629 125v1337h334l127 -125h-336v-1337z" />
<glyph unicode="U" d="M143 469v1149l127 -125v-1024q0 -141 100.5 -241.5t241.5 -100.5q143 0 243.5 100.5t100.5 241.5v1024l125 125v-1149q0 -195 -137 -332t-332 -137q-190 0 -331 137q-138 142 -138 332zM287 469v1024l127 125v-1149q0 -80 57 -141q57 -57 141 -58q88 0 142 58 q59 59 59 141v1149l125 -125v-1024q0 -135 -95 -229.5t-231 -96.5q-135 2 -230 96.5t-95 229.5z" />
<glyph unicode="V" horiz-adv-x="1501" d="M90 1604l164 -70l483 -1198l486 1198l163 70l-649 -1604zM270 1542l70 162l397 -985l400 985l69 -162l-469 -1159z" />
<glyph unicode="W" horiz-adv-x="2004" d="M88 1604l164 -70l483 -1198l260 643l260 -643l484 1198l164 70l-648 -1604l-260 643l-260 -643zM268 1540l70 164l397 -985l115 285l-201 499l162 -69l174 -430l-250 -621zM829 1440l68 164l98 -242l99 242l67 -164l-166 -414zM1006 1004l174 430l161 69l-200 -499 l114 -285l398 985l69 -164l-467 -1157z" />
<glyph unicode="X" d="M143 0v469q0 195 138 332l4 4q-2 0 -2 1t-2 1q-137 141 -138 332v469l125 -127v-342q0 -121 76 -214.5t191 -119.5q-115 -27 -191 -120t-76 -214v-6v-338zM287 127v342v2q0 133 94 227.5t227 96.5h8q133 -2 227.5 -96.5t94.5 -227.5v-2v-342l-125 -127v469q0 86 -59 141 q-59 59 -142 60q-86 0 -141 -60q-59 -55 -59 -141v-469zM287 1139v342l125 127v-469q0 -82 59 -141.5t141 -59.5t141.5 59.5t59.5 141.5v469l125 -127v-342q0 -129 -101.5 -226.5t-220.5 -99.5h-8q-119 2 -220 99.5t-101 226.5zM690 805q115 27 190.5 120t75.5 214v342 l125 127v-469q0 -190 -137 -332q-2 0 -2 -1t-2 -1l4 -4q137 -137 137 -332v-469l-125 127v338v6q0 121 -75.5 214t-190.5 120z" />
<glyph unicode="Y" d="M145 1139v467l125 -125v-342q0 -139 97.5 -239.5t236.5 -104.5v-670l-125 -125v688q-115 35 -196 119q-138 133 -138 332zM289 1139v342l125 125v-467q0 -86 59 -142q55 -59 141 -59q82 0 142 59q57 57 57 142v467l127 -125v-342q-2 -135 -97 -230.5t-229 -95.5 q-135 0 -230 95.5t-95 230.5zM623 125v670q139 4 236 104t97 240v342l127 125v-467q0 -197 -139 -332q-82 -84 -196 -119v-688z" />
<glyph unicode="Z" horiz-adv-x="1185" d="M129 0l541 1337h-541l127 125h600l-541 -1337h627l125 -125h-938zM129 1606h938l-539 -1338h539l-125 -125h-600l541 1338h-629z" />
<glyph unicode="[" d="M287 -395v2396h932l-125 -125h-682v-2144h682l125 -127h-932zM430 -250v2108h664l125 -125h-664v-1858h664l-125 -125h-664z" />
<glyph unicode="\" horiz-adv-x="2058" d="M27 1604h178l1618 -1618v-176zM217 1616v178l1794 -1794h-176z" />
<glyph unicode="]" d="M0 -125h664v1858h-664l125 125h663v-2108h-663zM0 -395l125 127h682v2144h-682l-125 125h932v-2396h-932z" />
<glyph unicode="^" d="M158 1909l465 465l464 -465h-178l-286 286l-287 -286h-178zM348 1718v178l275 275l274 -275v-178l-274 275z" />
<glyph unicode="_" d="M-137 -154h1513l-125 -125h-1263z" />
<glyph unicode="`" d="M254 2198h178l486 -486l-267 88zM444 2210v178l398 -397l88 -267z" />
<glyph unicode="a" horiz-adv-x="1607" d="M141 4l158 387h-158l127 125h215l-178 -442zM141 659h267l380 949l383 -949h267l-127 -124h-224l-299 737l-296 -737h-224zM322 68l182 448h571l182 -448l-69 -164l-197 487h-403l-197 -487zM510 535l278 690l281 -690h-559zM696 659h187l-95 230zM1096 516h217l125 -125 h-158l158 -387l-164 70z" />
<glyph unicode="b" d="M141 0v1606h469q195 0 332 -137.5t137 -331.5q0 -190 -137 -332l-2 -2h-2l4 -4q137 -137 137 -332q0 -193 -137 -330t-332 -137h-469zM266 125h344q143 0 243.5 100.5t100.5 243.5q0 121 -75.5 214t-190.5 120q115 27 190.5 120t75.5 214q0 143 -100 243.5t-244 100.5 h-344v-1356zM285 143v652h329q133 -4 227.5 -98.5t94.5 -227.5q0 -135 -95.5 -230.5t-230.5 -95.5h-325zM285 811v651h325q135 0 230.5 -95t95.5 -230q0 -129 -101.5 -226.5t-220.5 -99.5h-329zM410 268h200q82 0 142 60q59 55 59 139t-59 143q-57 57 -140 58h-202v-400z M410 938h200q84 0 142 57q59 59 59 142q0 86 -59 141q-59 59 -142 59h-200v-399z" />
<glyph unicode="c" d="M150 469v670q0 190 137 331q141 137 331 138q195 0 332 -137.5t137 -331.5v-127l-124 127q0 141 -100.5 241.5t-244.5 100.5q-141 0 -241.5 -100.5t-100.5 -241.5v-670q0 -141 100.5 -241.5t241.5 -100.5q143 0 244 100.5t101 241.5l124 127v-127q0 -195 -137 -332 t-332 -137q-190 0 -331 137q-137 142 -137 332zM293 469v670q0 133 95 229t230.5 96t230.5 -96t95 -229l-125 -125v125q0 82 -59 141q-57 57 -142 57q-80 0 -141 -57q-59 -63 -59 -141v-670q0 -78 59 -141q57 -57 141 -58q88 0 142 58q59 59 59 141v127l125 -127 q0 -135 -95 -229.5t-231 -96.5q-135 2 -230 96.5t-95 229.5z" />
<glyph unicode="d" d="M152 0v1606h469q195 0 332 -137.5t137 -331.5v-668q0 -195 -138 -332q-141 -137 -331 -137h-469zM276 125h345q143 0 243.5 100.5t100.5 243.5v668q0 143 -100.5 243.5t-243.5 100.5h-345v-1356zM295 143v1319h326q135 0 230 -95t95 -230v-668q0 -135 -95 -230.5 t-230 -95.5h-326zM420 268h201q82 0 141 60q55 53 59 141v668q-4 88 -59 141q-59 59 -141 59h-201v-1069z" />
<glyph unicode="e" d="M152 0v1608h933l-127 -127h-679v-1354h679l127 -127h-933zM297 143v672h537l124 -125h-536v-420h663l-127 -127h-661zM297 834v630h661l127 -127h-663v-379h536l-124 -124h-537z" />
<glyph unicode="f" d="M147 0v1606h932l-125 -125h-682v-1356zM291 125v688h538l125 -125h-538v-688zM291 831v631h663l125 -125h-663v-381h538l-125 -125h-538z" />
<glyph unicode="g" d="M139 467v670q0 195 137.5 332t329.5 137q195 0 332 -137.5t137 -331.5v-125l-125 125q0 143 -100 243.5t-244 100.5q-141 0 -241.5 -100.5t-100.5 -243.5v-670q0 -141 100.5 -241.5t241.5 -100.5q143 0 243.5 100.5t100.5 241.5v240h-248l-124 124h497v-364 q0 -197 -137 -330q-133 -137 -332 -137q-197 0 -330 137q-137 133 -137 330zM283 467v670q0 135 95 230t228 95q135 0 230.5 -95t95.5 -230l-125 -125v125q0 80 -57 141q-59 59 -144 59q-82 0 -141 -59q-57 -61 -57 -141v-670q0 -82 57 -139q59 -59 141 -60q84 0 144 60 q57 57 57 139v96h-229l124 125h230v-221q0 -133 -95.5 -228.5t-230.5 -95.5q-133 0 -228 95.5t-95 228.5z" />
<glyph unicode="h" d="M152 0v1606l124 -125v-1356zM295 125v690h645v-690l-125 -125v688h-395v-688zM295 831v650l125 125v-650h395v650l125 -125v-650h-645zM958 125v1356l125 125v-1606z" />
<glyph unicode="i" horiz-adv-x="980" d="M141 0l125 125h436l125 -125h-686zM141 268h209v1069h-209l125 127h209v-2v-1319h-209zM141 1606h686l-125 -125h-436zM494 143v1321h208l125 -127h-209v-1069h209l-125 -125h-208z" />
<glyph unicode="j" d="M150 469v125l126 -125q0 -143 100.5 -243.5t241.5 -100.5q143 0 244 100.5t101 243.5v1012l124 125v-1137q0 -199 -137 -332q-133 -137 -332 -137q-195 0 -331.5 137t-136.5 332zM293 469l127 125v-125q0 -84 57 -141q59 -59 141 -60q86 0 142 60q59 55 59 141v1137 l125 -125v-1012q0 -135 -95 -230.5t-230.5 -95.5t-230.5 95.5t-95 230.5z" />
<glyph unicode="k" d="M150 0v1608l124 -127v-1356zM293 125v651l598 -598v-178l-473 473v-473zM293 801l610 610h178l-610 -610l610 -611h-178zM293 827v654l125 127v-480l473 474v-177z" />
<glyph unicode="l" d="M156 0v1612l125 -125v-1362h682l124 -125h-931zM299 143v1344l125 125v-1344h663l-124 -125h-664z" />
<glyph unicode="m" horiz-adv-x="1585" d="M100 0v1606l682 -963l684 963v-1606l-127 125v1087l-557 -786l-557 786v-1087zM244 125v1030l538 -760l541 760v-1030l-127 -125v762l-414 -584l-413 584v-762z" />
<glyph unicode="n" d="M137 0v1612l672 -846v842l125 -125v-1077l-670 845v-1124zM281 127v1073l671 -846v1129l125 125v-1614l-669 846v-840z" />
<glyph unicode="o" d="M135 469v670q0 195 137.5 332t331.5 137q193 0 330 -138q139 -139 139 -331v-670q0 -193 -139 -332q-137 -137 -330 -137q-195 0 -332 137t-137 332zM260 469q0 -141 100.5 -241.5t243.5 -100.5q141 0 241.5 100.5t100.5 241.5v670q0 141 -100.5 241.5t-241.5 100.5 q-143 0 -243.5 -100.5t-100.5 -241.5v-670zM279 469v670q0 133 95 229t230 96q133 0 228.5 -96t95.5 -229v-670q0 -135 -94.5 -229.5t-229.5 -96.5q-135 2 -230 96.5t-95 229.5zM403 469q0 -80 58 -141q57 -57 143 -58q84 0 141 58q57 61 58 141v670q0 80 -58 141 q-61 57 -141 57q-82 0 -143 -57q-57 -61 -58 -141v-670z" />
<glyph unicode="p" d="M158 0v1606h469q195 0 332 -137.5t137 -331.5q0 -190 -138 -332q-137 -137 -329 -137h-2h-201v-668l-125 125v670h326q143 0 243.5 100t100.5 242q0 143 -100.5 243.5t-243.5 100.5h-344v-1356zM301 811v217v434h326q135 0 230 -95t95 -230.5t-95 -230.5t-230 -95h-201 h-125zM426 936h203q84 4 139 59q59 59 59 142q0 86 -59 141q-59 59 -141 59h-201v-401z" />
<glyph unicode="q" horiz-adv-x="1302" d="M129 469v668q0 195 137 331q133 137 332 138q195 0 332 -137.5t137 -331.5v-668q0 -115 -53 -215l256 -254h-178l-240 240q45 45 68 110q23 57 22 119v668q0 143 -100.5 243.5t-243.5 100.5t-243.5 -100.5t-100.5 -243.5v-668q0 -143 100.5 -243.5t243.5 -100.5 q70 0 137 29q61 29 105 71l239 -237v-178l-252 251q-106 -61 -229 -61q-195 0 -332 137t-137 332zM272 469v668q0 135 95.5 230t230.5 95t230.5 -95t95.5 -230v-668q0 -55 -19 -104q-20 -61 -65 -113l-13 -12q-49 -49 -106 -72q-55 -25 -123 -25q-135 0 -230.5 95.5 t-95.5 230.5zM397 469q0 -82 60 -141q55 -59 141 -60q82 0 141.5 59.5t59.5 141.5v668q0 84 -60 143q-61 57 -141 57q-84 0 -141 -57q-59 -59 -60 -143v-668z" />
<glyph unicode="r" d="M145 0v1606h469q197 0 330 -138q139 -135 139 -331q0 -193 -139 -332l-2 -2l2 -2q139 -139 139 -332v-469l-127 125v344q0 156 -116 258q-68 57 -148 76q84 18 148 76q117 102 116 258q0 143 -100 243.5t-242 100.5h-344v-1356zM289 125v670h325q119 -2 209 -78 q115 -98 115 -248v-344l-125 -125v469q0 80 -57 141q-61 57 -142 58h-200v-668zM289 811v217v434h325q133 0 228.5 -95t95.5 -230q0 -150 -115 -248q-90 -78 -209 -78h-200h-125zM414 938h200q80 0 142 57q57 61 57 142q0 84 -57 141q-59 59 -142 59h-200v-399zM614 795z " />
<glyph unicode="s" d="M131 469v125l125 -125q0 -141 100.5 -242.5t243.5 -101.5t242 92q100 90 100 234q0 133 -113 235q-92 86 -227 125q-135 41 -231.5 133t-96.5 211q0 131 93.5 219t232.5 88q133 0 228.5 -95t95.5 -228v-2l-125 -125v127q0 82 -58.5 140t-140.5 58q-88 0 -144.5 -51 t-56.5 -131q0 -76 75 -136.5t163 -86.5q164 -47 278 -154q154 -141 154 -327q0 -195 -141 -326q-137 -125 -328 -125q-195 0 -332 137t-137 332zM131 1155q0 195 139 328q135 123 330 123t332 -137.5t137 -329.5v-127l-127 127q0 141 -100.5 241.5t-241.5 100.5 q-143 0 -244 -90q-100 -94 -100 -236q0 -127 100.5 -223t239.5 -137q135 -41 231.5 -133.5t96.5 -210.5q0 -131 -93.5 -219.5t-230.5 -88.5q-135 0 -230.5 95.5t-95.5 230.5l125 125v-125q0 -84 58.5 -142.5t142.5 -58.5q86 0 142.5 52.5t56.5 130.5q0 74 -72 135t-166 88 q-160 47 -276 153q-154 142 -154 328z" />
<glyph unicode="t" d="M152 1337l124 125h334v-1337l-125 -125v1337h-333zM152 1606h938l-127 -125h-687zM629 125v1337h334l127 -125h-336v-1337z" />
<glyph unicode="u" d="M143 469v1149l127 -125v-1024q0 -141 100.5 -241.5t241.5 -100.5q143 0 243.5 100.5t100.5 241.5v1024l125 125v-1149q0 -195 -137 -332t-332 -137q-190 0 -331 137q-138 142 -138 332zM287 469v1024l127 125v-1149q0 -80 57 -141q57 -57 141 -58q88 0 142 58 q59 59 59 141v1149l125 -125v-1024q0 -135 -95 -229.5t-231 -96.5q-135 2 -230 96.5t-95 229.5z" />
<glyph unicode="v" horiz-adv-x="1480" d="M90 1604l164 -70l483 -1198l486 1198l163 70l-649 -1604zM270 1542l70 162l397 -985l400 985l69 -162l-469 -1159z" />
<glyph unicode="w" horiz-adv-x="1990" d="M88 1604l164 -70l483 -1198l260 643l260 -643l484 1198l164 70l-648 -1604l-260 643l-260 -643zM268 1540l70 164l397 -985l115 285l-201 499l162 -69l174 -430l-250 -621zM829 1440l68 164l98 -242l99 242l67 -164l-166 -414zM1006 1004l174 430l161 69l-200 -499 l114 -285l398 985l69 -164l-467 -1157z" />
<glyph unicode="x" d="M143 0v469q0 195 138 332l4 4q-2 0 -2 1t-2 1q-137 141 -138 332v469l125 -127v-342q0 -121 76 -214.5t191 -119.5q-115 -27 -191 -120t-76 -214v-6v-338zM287 127v342v2q0 133 94 227.5t227 96.5h8q133 -2 227.5 -96.5t94.5 -227.5v-2v-342l-125 -127v469q0 86 -59 141 q-59 59 -142 60q-86 0 -141 -60q-59 -55 -59 -141v-469zM287 1139v342l125 127v-469q0 -82 59 -141.5t141 -59.5t141.5 59.5t59.5 141.5v469l125 -127v-342q0 -129 -101.5 -226.5t-220.5 -99.5h-8q-119 2 -220 99.5t-101 226.5zM690 805q115 27 190.5 120t75.5 214v342 l125 127v-469q0 -190 -137 -332q-2 0 -2 -1t-2 -1l4 -4q137 -137 137 -332v-469l-125 127v338v6q0 121 -75.5 214t-190.5 120z" />
<glyph unicode="y" d="M145 1139v467l125 -125v-342q0 -139 97.5 -239.5t236.5 -104.5v-670l-125 -125v688q-115 35 -196 119q-138 133 -138 332zM289 1139v342l125 125v-467q0 -86 59 -142q55 -59 141 -59q82 0 142 59q57 57 57 142v467l127 -125v-342q-2 -135 -97 -230.5t-229 -95.5 q-135 0 -230 95.5t-95 230.5zM623 125v670q139 4 236 104t97 240v342l127 125v-467q0 -197 -139 -332q-82 -84 -196 -119v-688z" />
<glyph unicode="z" d="M129 0l541 1337h-541l127 125h600l-541 -1337h627l125 -125h-938zM129 1606h938l-539 -1338h539l-125 -125h-600l541 1338h-629z" />
<glyph unicode="{" d="M248 678l127 125q117 0 209 -76q115 -100 116 -250v-395q0 -141 100.5 -241.5t241.5 -100.5l125 -125h-125q-195 0 -332 137t-137 330v395q0 80 -57 141q-59 59 -141 60h-127zM248 946h127q82 0 141 60q57 57 57 141v393q0 195 138 332q141 137 331 137h125l-125 -125 q-141 0 -241.5 -100.5t-100.5 -243.5v-393q0 -150 -116 -250q-92 -76 -209 -76zM453 811q84 23 147 76q117 102 117 260v393q0 135 96 230.5t229 95.5l125 -125h-125q-82 0 -141 -60q-57 -61 -57 -141v-393q0 -195 -137 -332l-5 -4l5 -2q137 -141 137 -332v-395 q0 -80 57 -141q61 -57 141 -58h125l-125 -125q-133 0 -229 95.5t-96 228.5v2v393q0 156 -117 258q-63 58 -147 76z" />
<glyph unicode="|" d="M477 -242v2104l125 -125v-1852zM621 -115v1852l124 125v-2104z" />
<glyph unicode="}" d="M131 -117h125q82 0 141 60q57 61 58 141v393q0 195 137 332l4 4l-4 2q-137 141 -137 332v395q0 80 -58 141q-61 57 -141 58h-125l125 125q133 0 229.5 -95.5t96.5 -228.5v-2v-393q0 -156 116 -258q63 -57 148 -76q-84 -23 -148 -76q-117 -102 -116 -260v-393 q0 -135 -96.5 -230.5t-229.5 -95.5zM131 -385l125 125q141 0 241.5 100.5t100.5 243.5v393q0 150 117 250q92 76 209 76l127 -125h-127q-82 0 -142 -60q-57 -57 -57 -141v-393q0 -195 -137 -332q-141 -137 -332 -137h-125zM131 2009h125q195 0 332 -137t137 -330v-395 q0 -80 57 -141q59 -59 142 -60h127l-127 -125q-117 0 -209 76q-115 100 -117 250v395q0 141 -100.5 241.5t-241.5 100.5z" />
<glyph unicode="~" d="M125 608l88 90q98 96 236.5 96.5t236.5 -96.5q18 -20 46 -20t46 18l90 90v-178q-57 -55 -136 -55t-134 55q-61 61 -148.5 61.5t-148.5 -61.5h-176zM313 420v176q57 57 136 57t135 -57q61 -61 148 -61t149 61h176l-88 -88q-98 -98 -236.5 -98t-236.5 98q-18 18 -46 18 t-47 -18z" />
<glyph unicode="&#xa0;" />
<glyph unicode="&#xa1;" d="M330 -59l125 125v1124l-125 125v-1374zM330 1475l135 135l133 -135l-133 -134zM473 66l125 -125v1374l-125 -125v-1124z" />
<glyph unicode="&#xa2;" horiz-adv-x="1476" d="M123 799q0 221 133 395t342 231v363l127 -127v-340q-203 -18 -340 -169t-137 -353q0 -205 137 -354.5t340 -168.5v-339l-127 -127v362q-209 57 -342 231.5t-133 395.5zM266 798.5q0 196.5 132 341t327 163.5v-1008q-195 18 -327 162.5t-132 341zM391 798.5 q0 -108.5 56.5 -199.5t150.5 -140v678q-94 -47 -150.5 -138.5t-56.5 -200zM741 -63v337h31q219 0 373 154h176l-88 -90q-152 -152 -365 -182v-346zM741 293v1012q6 0 16.5 1t14.5 1q211 0 361 -150v-178l-91 90q-74 74 -174 98v-739q102 27 174 100l91 90l-3 -178 q-145 -150 -358 -149q-19 0 -31 2zM741 1323v338l127 127v-346q215 -31 365 -185l88 -88h-176q-154 154 -373 154h-31z" />
<glyph unicode="&#xa3;" d="M111 0l125 125h757l125 -125h-1007zM111 268h114q45 10 62 35q23 27 22 107q0 49 -14 139h-184l125 127h161q37 -170 37 -266q0 -113 -45 -180.5t-153 -86.5zM111 819h122q-51 209 -51 318q0 199 137 331q133 137 332 138q195 0 332 -137.5t137 -331.5v-125l-127 125 q0 143 -100 243.5t-242 100.5q-143 0 -243.5 -100.5t-100.5 -243.5h19q0 135 95 230t230 95q133 0 229.5 -95t96.5 -230l-127 -125v125q0 82 -57 143q-61 57 -142 57q-84 0 -141 -57q-59 -59 -59 -143q-2 -72 59 -316q0 -2 2 -2h199l-125 -127h-174q-10 41 -28.5 120 t-29 125t-19.5 103.5t-9 96.5h-19q0 -41 9.5 -98.5t19.5 -102.5t29.5 -124t27.5 -120h-157zM305 143q147 57 148 267q0 96 -37 266h170l125 -127h-144q10 -76 11 -139q0 -78 -17 -142h557l-125 -125h-688z" />
<glyph unicode="&#xa4;" horiz-adv-x="1607" d="M145 344l230 229q-57 102 -58 224q0 119 58 221l-230 229h179l215 -215q-94 -98 -95 -235q0 -139 95 -238l-215 -215h-179zM336 154v178l215 215q98 -94 235 -94q141 0 236 94l217 -215v-178l-229 229q-104 -55 -224 -55q-117 0 -223 55zM336 1260v178l227 -230 q100 55 223 56q125 0 224 -56l229 230l-2 -178h2l-215 -216q-98 94 -238 95q-137 0 -235 -95l-90 89zM461 797q0 133 95 228t230.5 95t230.5 -95t95 -228q0 -135 -95 -230.5t-230.5 -95.5t-230.5 95.5t-95 230.5zM588 797q0 -82 57 -144q61 -57 141 -57q84 0 142 57 q59 59 59 144q0 82 -59 141q-57 57 -142 57q-80 0 -141 -57q-57 -61 -57 -141zM1036 559q94 100 94 238q0 135 -94 235l215 215h176l-227 -229q55 -104 55 -221q0 -119 -55 -224l227 -229h-176z" />
<glyph unicode="&#xa5;" d="M125 209l125 125h336v-209l-127 -125v209h-334zM125 477h334v131h-334l125 127h336v-383h-336zM125 879h334v18q-113 35 -197 119q-137 137 -137 330v260l125 -125v-135q0 -139 98 -238.5t238 -103.5v-19v-233h-336zM268 1346v135l125 125v-260q0 -84 60 -140 q59 -59 141 -59t141 59q59 55 60 140v260l125 -125v-135q0 -133 -95.5 -228.5t-230.5 -95.5t-230.5 95.5t-95.5 228.5zM602 125v209h336l125 -125h-334v-209zM602 352v383h336l125 -127h-334v-131h334l-125 -125h-336zM602 752v252q139 4 237.5 103t98.5 239v135l125 125 v-260q0 -193 -137 -330q-84 -84 -197 -119v-18h334l-125 -127h-336z" />
<glyph unicode="&#xa6;" d="M477 -242v883l125 -125v-631zM477 963v882l125 -125v-630zM621 -115v631l124 125v-883zM621 1090v630l124 125v-882z" />
<glyph unicode="&#xa7;" horiz-adv-x="1406" d="M147 125v127l125 -127q0 -141 101.5 -241.5t242.5 -100.5q143 0 244 90q63 61 90 152q10 45 11 84q0 14 -5 51q53 23 97 61l12 12q88 92 88 222q0 133 -113 235q-92 86 -227 125q-135 41 -231.5 133t-96.5 211q0 133 93.5 221t232.5 88q133 0 229.5 -96t96.5 -229 l-127 -127v127q0 82 -58.5 140t-140.5 58q-88 0 -144.5 -51t-56.5 -131q0 -76 76 -136t162 -87q162 -47 278 -154q154 -141 154 -327q0 -195 -141 -326q-27 -23 -54 -41q-10 -184 -141 -307q-133 -123 -327.5 -123t-332 137t-137.5 330zM147 813q0 195 142 326q16 16 53 41 q6 182 141 307t328 125t331 -138.5t138 -330.5v-127l-127 127q0 141 -100.5 241.5t-241.5 100.5q-143 0 -244 -90q-68 -66 -90 -152q-10 -45 -10 -84q0 -14 4 -51q-53 -23 -96 -61q-8 -8 -15 -13q-88 -94 -88 -221t100.5 -223t241.5 -139q135 -39 231.5 -130.5t96.5 -211.5 q0 -131 -93 -219.5t-233 -88.5q-133 0 -229 95.5t-96 228.5l125 127v-127q0 -82 59.5 -140.5t140.5 -58.5q88 0 144.5 51.5t56.5 131.5q0 74 -71.5 134t-167.5 89q-164 49 -275 153q-156 140 -156 328zM291 813q0 119 78 203q45 47 106 76q12 -53 55 -113q96 -127 277 -180 q135 -41 232.5 -132.5t97.5 -211.5q0 -117 -78 -201q-43 -49 -107 -78q-14 59 -55 113q-25 31 -49 53q-92 86 -230 127q-133 39 -230 131t-97 213zM416 813q0 -76 76.5 -137.5t162.5 -85.5q168 -53 277 -156q27 -23 59 -61q18 37 19 82q0 74 -72 135t-166 88 q-166 51 -276 153q-29 27 -60 64q-20 -41 -20 -82z" />
<glyph unicode="&#xa8;" d="M219 1739h268v268h-268v-268zM745 1739h269v268h-269v-268z" />
<glyph unicode="&#xa9;" horiz-adv-x="1904" d="M125 805q0 342 240 577q231 231 577 232q342 0 578 -232q240 -240 239.5 -577.5t-239.5 -577.5q-233 -233 -578 -233q-348 0 -577 233q-240 236 -240 578zM250 805q0 -287 202.5 -489.5t489.5 -202.5t489.5 203.5t202.5 488.5t-202.5 488.5t-489.5 203.5t-489.5 -202.5 t-202.5 -489.5zM268 805q0 279 198 476.5t476.5 197.5t476 -198t197.5 -476.5t-197.5 -476t-476 -197.5t-476.5 196.5t-198 477.5zM393 805q0 -227 161 -390t388 -163q225 0 387 163t162 390t-162 389t-387 162q-227 0 -388 -162t-161 -389zM672 670h2h-2v270 q0 111 78.5 189.5t191.5 78.5q111 0 189.5 -78.5t78.5 -189.5v-123l-125 123q-2 59 -44 101t-99 42q-59 0 -101 -42t-42 -101v-270q0 -59 42 -101.5t101 -42.5q57 0 100 42t43 102l125 123v-123q0 -111 -78.5 -190t-189.5 -79q-113 0 -191.5 79t-78.5 190zM815 670v270 q0 51 38 88t89 37t88 -37t37 -88l-117 -117v117q0 8 -8 8q-10 0 -10 -8v-270q0 -8 10 -8q8 0 8 8v116l117 -116q0 -51 -37 -88t-88 -37t-89 37t-38 88z" />
<glyph unicode="&#xaa;" d="M219 739h791l-127 -125h-537zM221 471l125 125h537l127 -125h-789zM346 1135v268q0 113 79 190.5t189 77.5q113 0 191 -78l78 78v-125v-143v-268v-144v-125l-78 78q-78 -78 -191 -78q-111 0 -189.5 78t-78.5 191zM471 1135q0 -59 42 -101.5t101.5 -42.5t101.5 42t42 102 v270q0 59 -42 100t-102 41q-57 0 -99 -41t-44 -100v-270zM489 1135v268q0 51 36 88t89.5 37t89 -37t35.5 -88v-268q0 -53 -35.5 -89t-89 -36t-89.5 36t-36 89zM606 1135q0 -8 8 -9q10 0 11 9v268q0 10 -11 10q-8 0 -8 -10v-268z" />
<glyph unicode="&#xab;" horiz-adv-x="2535" d="M182 872l1301 752l-45 -172l-1004 -580l1004 -579l45 -172zM469 872l977 -565l172 47l-897 518l897 519l-172 45zM971 872l1300 752l-45 -172l-1003 -580l1003 -579l45 -172zM1257 872l977 -565l172 47l-897 518l897 519l-172 45z" />
<glyph unicode="&#xac;" horiz-adv-x="1849" d="M78 729h1343v-663l127 127v661h-1343zM78 997l127 -125h1360v-679l127 -127v931h-1614z" />
<glyph unicode="&#xad;" horiz-adv-x="1460" d="M139 670l125 125h938l125 -125h-1188zM139 938h1188l-125 -125h-938z" />
<glyph unicode="&#xae;" horiz-adv-x="1839" d="M92 803q0 336 240 579q231 231 577 231.5t578 -231.5q240 -240 239 -579q0 -338 -239 -578q-231 -231 -577.5 -231t-577.5 231q-240 244 -240 578zM217 803q0 -287 203 -489.5t489.5 -202.5t489.5 202.5t203 489.5t-203 489.5t-489.5 202.5t-489.5 -202.5t-203 -489.5z M236 802.5q0 278.5 197.5 477.5t476 199t476 -198t197.5 -478q0 -279 -197.5 -476.5t-476 -197.5t-476 197.5t-197.5 476zM360 803q0 -225 162 -388t387 -163q227 0 388 161.5t161 389t-160.5 390.5t-388.5 163q-225 0 -387 -163t-162 -390zM653 389v807l78 -78 q82 78 191 78q111 0 189.5 -79t78.5 -189q0 -115 -80 -191l158 -157h-178l-209 211q18 -6 41 -7q59 0 101 42t42 101.5t-42 101.5t-101.5 42t-101.5 -42t-42 -101v-412zM797 516v332l280 -281v-178l-155 158v-158zM797 928q0 51 36.5 88t88 37t88.5 -37t37 -88 q0 -53 -37 -90t-88.5 -37t-88 37t-36.5 90z" />
<glyph unicode="&#xaf;" d="M-137 1968h1513l-125 -125h-1263z" />
<glyph unicode="&#x2c9;" d="M-137 1968h1513l-125 -125h-1263z" />
<glyph unicode="&#xb0;" horiz-adv-x="1282" d="M295 1675.5q0 139.5 98.5 236.5t235.5 97t235.5 -97t98.5 -236.5t-97.5 -238t-237 -98.5t-236.5 98.5t-97 238zM420 1675q0 -88 61.5 -149.5t147.5 -61.5t147.5 61.5t61.5 149.5q0 86 -61.5 147.5t-147.5 61.5t-147.5 -61.5t-61.5 -147.5zM438 1675q0 78 55.5 134.5 t135.5 56.5t135 -56.5t55 -134.5q0 -80 -55 -136t-135 -56t-135.5 56t-55.5 136zM563 1675q0 -29 19.5 -48t46 -19t46 19.5t19.5 47.5q0 27 -19.5 46.5t-46 19.5t-46 -19.5t-19.5 -46.5z" />
<glyph unicode="&#xb1;" horiz-adv-x="1423" d="M117 0l125 125h938l125 -125h-1188zM117 268h1188l-125 -125h-938zM117 803l125 125h458v-459l-125 -127v461h-458zM117 1071h458v461l125 -125v-461h-458zM719 469v459h461l125 -125h-459v-461zM719 946v461l127 125v-461h459l-125 -125h-461z" />
<glyph unicode="&#xb2;" horiz-adv-x="829" d="M145 1212v136q0 84 43 155q35 57 86 101q23 20 52.5 45.5t47 42t25.5 26.5q14 18 15 33h-125q0 51 35.5 88t89 37t89.5 -37t36 -88q0 -57 -33 -100t-98 -97q-47 -39 -68 -59t-45.5 -62t-24.5 -85v-11h287l125 -125h-537zM145 1751q0 111 78 189.5t190.5 78.5t190.5 -78.5 t78 -189.5q2 -84 -43 -158q-31 -51 -84 -102q-4 -2 -12 -10h139l-125 -125h-268q2 53 34.5 93t96.5 91q49 43 68.5 61.5t44 61.5t24.5 88q0 59 -42 101t-101.5 42t-101.5 -42t-42 -101h-125z" />
<glyph unicode="&#xb3;" horiz-adv-x="798" d="M125 1481h125q0 -59 43 -101.5t102.5 -42.5t101.5 42t42 102q0 45 -27 81.5t-68 53.5q41 16 68 52t27 81v2q0 59 -42 101t-101.5 42t-102.5 -43t-43 -102h-125q0 113 79 191.5t191 78.5q111 0 190 -78.5t79 -191.5q0 -70 -37 -133q37 -68 37 -135q0 -111 -79 -190 t-190 -79q-113 0 -191.5 79t-78.5 190zM268 1481h127v125v2v-2q51 0 88 -37t37 -88t-37 -88t-88 -37q-53 0 -90 37t-37 88zM268 1749q0 53 38 90t89 37t88 -38t37 -89t-37 -88t-88 -37v125h-127z" />
<glyph unicode="&#xb4;" d="M254 1724l485 486v178l-397 -397zM266 1712l266 88l398 398h-178z" />
<glyph unicode="&#xb5;" horiz-adv-x="1380" d="M178 -555l127 125v1321l-127 125v-1571zM322 360q39 -109 127 -170q88 -66 198 -65q125 0 225 84q74 63 101 151v-28q0 -80 53 -137q20 -23 57 -45q49 -25 97 -25l125 -125h-125q-82 0 -154 39q-45 23 -86 63q-129 -102 -293 -102q-104 0 -198 45v-600l-127 125v790z M322 467v424l127 125v-547q0 -80 57 -141q59 -59 141 -60q86 0 141 60q59 59 60 141v547l125 -125v-422q0 -145 -109 -242q-94 -84 -217 -84q-109 0 -198 70q-123 96 -127 254zM991 332v559l125 125v-684q0 -27 18.5 -45.5t45.5 -18.5h125l-125 -125q-86 0 -142 66 q-47 53 -47 123z" />
<glyph unicode="&#x3bc;" horiz-adv-x="1380" d="M178 -555l127 125v1321l-127 125v-1571zM322 360q39 -109 127 -170q88 -66 198 -65q125 0 225 84q74 63 101 151v-28q0 -80 53 -137q20 -23 57 -45q49 -25 97 -25l125 -125h-125q-82 0 -154 39q-45 23 -86 63q-129 -102 -293 -102q-104 0 -198 45v-600l-127 125v790z M322 467v424l127 125v-547q0 -80 57 -141q59 -59 141 -60q86 0 141 60q59 59 60 141v547l125 -125v-422q0 -145 -109 -242q-94 -84 -217 -84q-109 0 -198 70q-123 96 -127 254zM991 332v559l125 125v-684q0 -27 18.5 -45.5t45.5 -18.5h125l-125 -125q-86 0 -142 66 q-47 53 -47 123z" />
<glyph unicode="&#xb6;" horiz-adv-x="1765" d="M137 1139q0 193 137 329q133 137 332 138h1034l-124 -125h-910q-143 0 -243.5 -100.5t-100.5 -241.5q0 -143 100.5 -243.5t243.5 -100.5h166v-920l-127 -125v920h-39q-199 0 -332 137q-137 137 -137 332zM281 1139q0 133 95 228t230 95h166v-649h-166q-135 0 -230 95.5 t-95 230.5zM406 1139q0 -84 59 -144q57 -57 141 -57h39v399h-39q-84 0 -141 -57q-59 -59 -59 -141zM788 -125v1587h512v-1587l-124 -125v1587h-261v-1587zM1319 -125v1587h197l124 -125h-196v-1587z" />
<glyph unicode="&#xb7;" horiz-adv-x="1460" d="M477 631h268v268h-268v-268z" />
<glyph unicode="&#x2219;" horiz-adv-x="1460" d="M477 631h268v268h-268v-268z" />
<glyph unicode="&#xb8;" horiz-adv-x="1685" d="M430 -453l170 54q43 -25 94 -25q127 0 185 111q39 72 15 152.5t-93 121.5l65 123h138l-48 -96q59 -76 69.5 -173.5t-36.5 -187.5q-43 -84 -123 -130t-172 -46q-82 0 -153 39zM555 -215l111 -57q23 -12 48 -5t37.5 29.5t4.5 48t-31 37.5l-119 64l99 182h141l-70 -131l8 -4 q70 -37 92.5 -111t-14.5 -143.5t-110.5 -92t-143.5 12.5z" />
<glyph unicode="&#xb9;" horiz-adv-x="577" d="M152 1227v520l124 127v-537zM295 1339v551l125 127v-805z" />
<glyph unicode="&#xba;" horiz-adv-x="1034" d="M117 489l125 125h536l127 -125h-788zM117 758h788l-127 -125h-536zM242 1153v268q0 113 78.5 191t189.5 78q113 0 190.5 -78t77.5 -191v-268q0 -113 -77.5 -191.5t-190.5 -78.5q-111 0 -189.5 78.5t-78.5 191.5zM367 1153q0 -59 42 -101t101 -42t101 42t42 101v270 q0 59 -42 100.5t-101 41.5q-57 0 -99 -41t-44 -101v-270zM385 1153v268q0 53 37 89t88 36t88 -35.5t37 -89.5v-268q0 -53 -37 -90t-88 -37t-88 37t-37 90zM502 1153q0 -10 8 -10q10 0 10 10v268q0 8 -10 9q-8 0 -8 -9v-268z" />
<glyph unicode="&#xbb;" horiz-adv-x="2514" d="M182 872l1301 752l-45 -172l-1004 -580l1004 -579l45 -172zM469 872l977 -565l172 47l-897 518l897 519l-172 45zM971 872l1300 752l-45 -172l-1003 -580l1003 -579l45 -172zM1257 872l977 -565l172 47l-897 518l897 519l-172 45z" />
<glyph unicode="&#xbc;" horiz-adv-x="1988" d="M0 0l1794 1794v-176l-1616 -1618h-178zM190 -12l1618 1618h177l-1795 -1796v178zM315 817v520l125 125v-534zM459 928v553l125 125v-803zM1137 412l393 393h125v-270h125l-125 -125h-125v219l-238 -238h219v-266l-125 -125v266h-102zM1335 410l176 176v-176h-176z M1530 125v266h125l127 -125h-127v-266z" />
<glyph unicode="&#xbd;" horiz-adv-x="1992" d="M0 0l1794 1794v-176l-1616 -1618h-178zM190 -12l1618 1618h177l-1795 -1796v178zM315 817v520l125 125v-534zM459 928v553l125 125v-803zM1249 0v135q0 80 43 156q31 49 86 100q18 16 51 44t49.5 43.5t24.5 27.5q14 16 15 33h-125q0 51 36.5 88t88 37t88 -37t36.5 -88h3 q0 -57 -34 -100.5t-100 -96.5q-47 -39 -67.5 -59.5t-45 -62.5t-24.5 -85v-10h287l127 -125h-539zM1249 539q0 111 79 189.5t190 78.5q113 0 190.5 -79t77.5 -189q2 -84 -43 -158q-31 -51 -84 -102q-2 -2 -6 -5.5t-6 -5.5h141l-127 -125h-268q2 53 34.5 93t96.5 92 q43 37 67.5 59.5t47 64.5t22.5 87q0 59 -42 101t-101.5 42t-101.5 -42t-42 -101h-125z" />
<glyph unicode="&#xbe;" horiz-adv-x="1984" d="M0 0l1794 1794v-176l-1616 -1618h-178zM168 1069h127q0 -59 42 -101t101.5 -42t101.5 42t42 101q0 45 -27 82t-68 51q41 16 68 53t27 82q0 59 -42 101.5t-101.5 42.5t-101.5 -42t-42 -102h-127q0 113 79 191t191 78q111 0 190 -78t79 -191q0 -68 -37 -135q37 -63 37 -133 q0 -113 -79 -190.5t-190 -77.5q-113 0 -191.5 77.5t-78.5 190.5zM190 -12l1618 1618h177l-1795 -1796v178zM311 1069h127v125q51 0 88 -37t37 -88t-37 -88t-88 -37q-53 0 -90 37t-37 88zM311 1337q0 51 37 88t90 37q51 0 88 -36.5t37 -88t-37 -88.5t-88 -37v125h-127z M1137 412l393 393h125v-270h125l-125 -125h-125v219l-238 -238h219v-266l-125 -125v266h-102zM1335 410l176 176v-176h-176zM1530 125v266h125l127 -125h-127v-266z" />
<glyph unicode="&#xbf;" d="M152 420q0 100 35.5 185t69.5 125t95 99q55 53 80 83t46.5 86.5t21.5 129.5v78v125l125 -125v-78q0 -98 -32 -177t-61.5 -114.5t-91.5 -95.5q-57 -57 -82.5 -87.5t-53.5 -94t-28 -139.5q-2 -102 54.5 -190.5t152.5 -129.5q131 -57 263.5 -5t189.5 184q55 133 2 262v2 l72 162l47 -117q70 -180 -6 -359q-78 -180 -258 -249q-180 -74 -359 4q-180 78 -250 258q-34 90 -32 178zM295 420q0 72 25.5 132t52 93t80.5 82q63 61 95 99t63.5 120t31.5 182v78l125 125v-125v-78q0 -94 -19.5 -172.5t-60.5 -141t-69.5 -95.5t-77.5 -82 q-70 -66 -95.5 -108t-25.5 -109q0 -43 14 -78q29 -76 107 -111q74 -33 153 -2q78 31 109 107q35 78 2 153l-45 117l162 -71q51 -127 -4 -248q-51 -125 -177.5 -174.5t-248.5 4.5q-92 39 -145.5 123t-51.5 180zM500 1495l135 -135l133 135l-133 135z" />
<glyph unicode="&#xc0;" horiz-adv-x="1607" d="M141 4l158 387h-158l127 125h215l-178 -442zM141 659h267l380 949l383 -949h267l-127 -124h-224l-299 737l-296 -737h-224zM322 68l182 448h571l182 -448l-69 -164l-197 487h-403l-197 -487zM451 2204h178l485 -486l-266 88zM510 535l278 690l281 -690h-559zM641 2216 v178l397 -397l88 -266zM696 659h187l-95 230zM1096 516h217l125 -125h-158l158 -387l-164 70z" />
<glyph unicode="&#xc1;" horiz-adv-x="1581" d="M141 4l158 387h-158l127 125h215l-178 -442zM141 659h267l380 949l383 -949h267l-127 -124h-224l-299 737l-296 -737h-224zM322 68l182 448h571l182 -448l-69 -164l-197 487h-403l-197 -487zM510 535l278 690l281 -690h-559zM696 659h187l-95 230zM1096 516h217l125 -125 h-158l158 -387l-164 70zM453 1730l485 486v178l-397 -397zM465 1718l266 88l398 398h-178z" />
<glyph unicode="&#xc2;" horiz-adv-x="1574" d="M141 4l158 387h-158l127 125h215l-178 -442zM141 659h267l380 949l383 -949h267l-127 -124h-224l-299 737l-296 -737h-224zM322 68l182 448h571l182 -448l-69 -164l-197 487h-403l-197 -487zM324 1909l464 465l465 -465h-178l-287 286l-286 -286h-178zM510 535l278 690 l281 -690h-559zM512 1718v178l276 275l275 -275v-178l-275 275zM696 659h187l-95 230zM1096 516h217l125 -125h-158l158 -387l-164 70z" />
<glyph unicode="&#xc3;" horiz-adv-x="1601" d="M141 4l158 387h-158l127 125h215l-178 -442zM141 659h267l380 949l383 -949h267l-127 -124h-224l-299 737l-296 -737h-224zM313 1919l88 90q98 96 236.5 96t236.5 -96q18 -20 46 -20t47 18l90 90v-178q-57 -55 -136 -55t-135 55q-61 61 -148 61t-149 -61h-176zM322 68 l182 448h571l182 -448l-69 -164l-197 487h-403l-197 -487zM502 1731v176q57 57 136 57t134 -57q61 -61 148.5 -61.5t148.5 61.5h176l-88 -88q-98 -98 -236.5 -98.5t-236.5 98.5q-18 18 -46 18t-46 -18zM510 535l278 690l281 -690h-559zM696 659h187l-95 230zM1096 516h217 l125 -125h-158l158 -387l-164 70z" />
<glyph unicode="&#xc4;" horiz-adv-x="1570" d="M141 4l158 387h-158l127 125h215l-178 -442zM141 659h267l380 949l383 -949h267l-127 -124h-224l-299 737l-296 -737h-224zM322 68l182 448h571l182 -448l-69 -164l-197 487h-403l-197 -487zM391 1718h268v269h-268v-269zM510 535l278 690l281 -690h-559zM696 659h187 l-95 230zM918 1718h268v269h-268v-269zM1096 516h217l125 -125h-158l158 -387l-164 70z" />
<glyph unicode="&#xc5;" horiz-adv-x="1601" d="M141 4l158 387h-158l127 125h215l-178 -442zM141 659h267l380 949l383 -949h267l-127 -124h-224l-299 737l-296 -737h-224zM322 68l182 448h571l182 -448l-69 -164l-197 487h-403l-197 -487zM455 2040q0 139 98 236.5t235.5 97.5t235.5 -97.5t98 -236.5t-97 -237.5 t-236.5 -98.5t-236.5 98.5t-97 237.5zM510 535l278 690l281 -690h-559zM580 2040q0 -88 61 -149.5t147 -61.5t147.5 61.5t61.5 149.5q0 86 -61.5 147.5t-147.5 61.5t-147 -61.5t-61 -147.5zM598 2040q0 78 55.5 134t135 56t135 -56t55.5 -134q0 -80 -55.5 -136.5t-135 -56.5 t-135 56.5t-55.5 136.5zM696 659h187l-95 230zM723 2040q0 -29 19.5 -48.5t46 -19.5t46 19.5t19.5 48.5q0 27 -19.5 46t-46 19t-46 -19t-19.5 -46zM1096 516h217l125 -125h-158l158 -387l-164 70z" />
<glyph unicode="&#xc6;" horiz-adv-x="1560" d="M143 0v1137q0 193 138 333q137 137 331 138h789l-125 -127h-428h-236q-143 0 -243.5 -100.5t-100.5 -241.5v-1014zM287 125v672h450v-672h539l125 -125h-789v670h-200v-670zM287 813v326q0 133 95 228t230 97h125v-651h-450zM412 940h200v397q-84 0 -141 -57 q-59 -59 -59 -143v-197zM756 143v654h393l127 -127h-395v-402h520l-125 -125h-520zM756 813v651h520l125 -127h-520v-397h395l-127 -127h-393z" />
<glyph unicode="&#xc7;" d="M145 473v670q0 195 137.5 332t331.5 137q190 0 332 -137q137 -141 137 -332v-125l-127 125q0 143 -100 243.5t-242 100.5q-143 0 -243.5 -100.5t-100.5 -243.5v-670q0 -139 97.5 -239.5t236.5 -102.5l-84 -158l8 -4q70 -35 92.5 -109.5t-14.5 -144.5q-35 -70 -109.5 -92 t-144.5 12l-51 170l111 -57q23 -12 47 -5t36.5 29.5t4.5 48t-31 38.5l-117 63l66 125q-80 39 -135 96q-138 133 -138 330zM174 -432l170 53q45 -25 96 -24q123 0 183 110q39 72 16 153t-94 122l80 149q139 4 235 104.5t96 237.5l127 127v-127q0 -193 -137 -330 q-100 -100 -241 -129l-3 -6q59 -76 68.5 -173t-37.5 -187q-43 -84 -123 -130t-170 -46q-84 0 -155 39zM289 473q0 -133 95 -228t230 -98q133 2 229.5 97.5t96.5 228.5l-127 127v-127q0 -80 -57 -141q-61 -57 -142 -58q-84 0 -141 58q-59 59 -59 141v670q0 82 59 141 q55 59 141 59q82 0 142 -59q57 -61 57 -141v-125l127 125q0 135 -96 230t-230 95q-135 0 -230 -95t-95 -230v-670z" />
<glyph unicode="&#xc8;" d="M152 0v1608h933l-127 -127h-679v-1354h679l127 -127h-933zM297 143v672h537l124 -125h-536v-420h663l-127 -127h-661zM297 834v630h661l127 -127h-663v-379h536l-124 -124h-537zM254 2202h178l486 -486l-267 88zM444 2214v178l398 -397l88 -267z" />
<glyph unicode="&#xc9;" d="M152 0v1608h933l-127 -127h-679v-1354h679l127 -127h-933zM297 143v672h537l124 -125h-536v-420h663l-127 -127h-661zM297 834v630h661l127 -127h-663v-379h536l-124 -124h-537zM315 1730l485 486v178l-397 -397zM327 1718l266 88l398 398h-178z" />
<glyph unicode="&#xca;" d="M152 0v1608h933l-127 -127h-679v-1354h679l127 -127h-933zM297 143v672h537l124 -125h-536v-420h663l-127 -127h-661zM297 834v630h661l127 -127h-663v-379h536l-124 -124h-537zM158 1907l465 465l464 -465h-178l-286 286l-287 -286h-178zM346 1716v178l277 275l274 -275 v-178l-274 275z" />
<glyph unicode="&#xcb;" d="M152 0v1608h933l-127 -127h-679v-1354h679l127 -127h-933zM297 143v672h537l124 -125h-536v-420h663l-127 -127h-661zM297 834v630h661l127 -127h-663v-379h536l-124 -124h-537zM219 1719h268v268h-268v-268zM745 1719h269v268h-269v-268z" />
<glyph unicode="&#xcc;" horiz-adv-x="1007" d="M141 0l125 125h436l125 -125h-686zM141 268h209v1069h-209l125 127h209v-2v-1319h-209zM141 1606h686l-125 -125h-436zM147 2204h179l485 -486l-266 88zM338 2216v178l397 -397l88 -266zM494 143v1321h208l125 -127h-209v-1069h209l-125 -125h-208z" />
<glyph unicode="&#xcd;" horiz-adv-x="987" d="M141 0l125 125h436l125 -125h-686zM141 268h209v1069h-209l125 127h209v-2v-1319h-209zM141 1606h686l-125 -125h-436zM143 1729l486 485v178l-398 -397zM156 1716l266 88l397 398h-178zM494 143v1321h208l125 -127h-209v-1069h209l-125 -125h-208z" />
<glyph unicode="&#xce;" horiz-adv-x="987" d="M20 1905l465 465l465 -465h-178l-287 286l-286 -286h-179zM141 0l125 125h436l125 -125h-686zM141 268h209v1069h-209l125 127h209v-2v-1319h-209zM141 1606h686l-125 -125h-436zM209 1714v178l276 275l275 -275v-178l-275 275zM494 143v1321h208l125 -127h-209v-1069 h209l-125 -125h-208z" />
<glyph unicode="&#xcf;" horiz-adv-x="956" d="M86 1714h268v268h-268v-268zM141 0l125 125h436l125 -125h-686zM141 268h209v1069h-209l125 127h209v-2v-1319h-209zM141 1606h686l-125 -125h-436zM494 143v1321h208l125 -127h-209v-1069h209l-125 -125h-208zM612 1714h269v268h-269v-268z" />
<glyph unicode="&#xd0;" horiz-adv-x="1343" d="M41 670l125 125h262v-670h342q143 0 243.5 101.5t100.5 242.5v668q0 143 -100.5 243.5t-243.5 100.5h-342v-668h-262l-125 125h260v670h469q197 0 332 -140q137 -133 137 -331v-668q0 -195 -137 -332t-332 -137h-469v670h-260zM444 143v652h261l124 -125h-258v-402h199 q86 0 141 60q59 59 60 141v668q0 84 -60 143q-57 57 -141 57h-199v-399h258l-124 -125h-261v651h326q135 -2 230.5 -97t95.5 -230v-668q0 -135 -95.5 -230.5t-230.5 -95.5h-326z" />
<glyph unicode="&#xd1;" d="M137 0v1612l672 -846v842l125 -125v-1077l-670 845v-1124zM281 127v1073l671 -846v1129l125 125v-1614l-669 846v-840zM129 1946l88 90q98 96 236.5 96t236.5 -96q18 -20 46 -20t46 18l90 90v-178q-57 -55 -136 -55t-134 55q-61 61 -148.5 61t-148.5 -61h-176zM317 1758 v176q57 57 136 57t135 -57q61 -61 148 -61.5t149 61.5h176l-88 -88q-98 -98 -236.5 -98.5t-236.5 98.5q-18 18 -46 18t-47 -18z" />
<glyph unicode="&#xd2;" d="M135 469v670q0 195 137.5 332t331.5 137q193 0 330 -138q139 -139 139 -331v-670q0 -193 -139 -332q-137 -137 -330 -137q-195 0 -332 137t-137 332zM260 469q0 -141 100.5 -241.5t243.5 -100.5q141 0 241.5 100.5t100.5 241.5v670q0 141 -100.5 241.5t-241.5 100.5 q-143 0 -243.5 -100.5t-100.5 -241.5v-670zM279 469v670q0 133 95 229t230 96q133 0 228.5 -96t95.5 -229v-670q0 -135 -94.5 -229.5t-229.5 -96.5q-135 2 -230 96.5t-95 229.5zM403 469q0 -80 58 -141q57 -57 143 -58q84 0 141 58q57 61 58 141v670q0 80 -58 141 q-61 57 -141 57q-82 0 -143 -57q-57 -61 -58 -141v-670zM254 2202h178l486 -486l-267 88zM444 2214v178l398 -397l88 -267z" />
<glyph unicode="&#xd3;" d="M135 469v670q0 195 137.5 332t331.5 137q193 0 330 -138q139 -139 139 -331v-670q0 -193 -139 -332q-137 -137 -330 -137q-195 0 -332 137t-137 332zM260 469q0 -141 100.5 -241.5t243.5 -100.5q141 0 241.5 100.5t100.5 241.5v670q0 141 -100.5 241.5t-241.5 100.5 q-143 0 -243.5 -100.5t-100.5 -241.5v-670zM279 469v670q0 133 95 229t230 96q133 0 228.5 -96t95.5 -229v-670q0 -135 -94.5 -229.5t-229.5 -96.5q-135 2 -230 96.5t-95 229.5zM403 469q0 -80 58 -141q57 -57 143 -58q84 0 141 58q57 61 58 141v670q0 80 -58 141 q-61 57 -141 57q-82 0 -143 -57q-57 -61 -58 -141v-670zM254 1730l485 486v178l-397 -397zM266 1718l266 88l398 398h-178z" />
<glyph unicode="&#xd4;" d="M135 469v670q0 195 137.5 332t331.5 137q193 0 330 -138q139 -139 139 -331v-670q0 -193 -139 -332q-137 -137 -330 -137q-195 0 -332 137t-137 332zM260 469q0 -141 100.5 -241.5t243.5 -100.5q141 0 241.5 100.5t100.5 241.5v670q0 141 -100.5 241.5t-241.5 100.5 q-143 0 -243.5 -100.5t-100.5 -241.5v-670zM279 469v670q0 133 95 229t230 96q133 0 228.5 -96t95.5 -229v-670q0 -135 -94.5 -229.5t-229.5 -96.5q-135 2 -230 96.5t-95 229.5zM403 469q0 -80 58 -141q57 -57 143 -58q84 0 141 58q57 61 58 141v670q0 80 -58 141 q-61 57 -141 57q-82 0 -143 -57q-57 -61 -58 -141v-670zM138 1905l465 465l464 -465h-178l-286 286l-287 -286h-178zM326 1714v178l277 275l274 -275v-178l-274 275z" />
<glyph unicode="&#xd5;" d="M135 469v670q0 195 137.5 332t331.5 137q193 0 330 -138q139 -139 139 -331v-670q0 -193 -139 -332q-137 -137 -330 -137q-195 0 -332 137t-137 332zM260 469q0 -141 100.5 -241.5t243.5 -100.5q141 0 241.5 100.5t100.5 241.5v670q0 141 -100.5 241.5t-241.5 100.5 q-143 0 -243.5 -100.5t-100.5 -241.5v-670zM279 469v670q0 133 95 229t230 96q133 0 228.5 -96t95.5 -229v-670q0 -135 -94.5 -229.5t-229.5 -96.5q-135 2 -230 96.5t-95 229.5zM403 469q0 -80 58 -141q57 -57 143 -58q84 0 141 58q57 61 58 141v670q0 80 -58 141 q-61 57 -141 57q-82 0 -143 -57q-57 -61 -58 -141v-670zM139 1950l88 90q98 96 236.5 96t236.5 -96q18 -20 46 -20t46 18l90 90v-178q-57 -55 -136 -55t-134 55q-61 61 -148.5 61t-148.5 -61h-176zM327 1762v176q57 57 136 57t135 -57q61 -61 148 -61.5t149 61.5h176 l-88 -88q-98 -98 -236.5 -98.5t-236.5 98.5q-18 18 -46 18t-47 -18z" />
<glyph unicode="&#xd6;" d="M135 469v670q0 195 137.5 332t331.5 137q193 0 330 -138q139 -139 139 -331v-670q0 -193 -139 -332q-137 -137 -330 -137q-195 0 -332 137t-137 332zM260 469q0 -141 100.5 -241.5t243.5 -100.5q141 0 241.5 100.5t100.5 241.5v670q0 141 -100.5 241.5t-241.5 100.5 q-143 0 -243.5 -100.5t-100.5 -241.5v-670zM279 469v670q0 133 95 229t230 96q133 0 228.5 -96t95.5 -229v-670q0 -135 -94.5 -229.5t-229.5 -96.5q-135 2 -230 96.5t-95 229.5zM403 469q0 -80 58 -141q57 -57 143 -58q84 0 141 58q57 61 58 141v670q0 80 -58 141 q-61 57 -141 57q-82 0 -143 -57q-57 -61 -58 -141v-670zM207 1714h268v268h-268v-268zM733 1714h269v268h-269v-268z" />
<glyph unicode="&#xd7;" horiz-adv-x="1312" d="M133 477l326 326l-326 325h178l326 -325l-326 -326h-178zM324 289v176l325 326l326 -326v-176l-326 323zM324 1141v178l325 -326l326 326l-2 -178h2l-326 -326zM662 803l325 325h176l-325 -325l325 -326h-176z" />
<glyph unicode="&#xd8;" horiz-adv-x="1728" d="M51 18l262 265q-104 164 -104 354q0 270 190.5 460.5t460.5 190.5q193 0 354 -106l252 254v-179l-241 -241q-154 147 -365 147q-217 0 -371.5 -153.5t-154.5 -372.5q0 -211 147 -365l-254 -254h-176zM242 6l252 254q154 -147 366 -147q217 0 370.5 153.5t153.5 370.5 q0 213 -147 364l244 244h176l-252 -252q104 -164 104 -356q0 -268 -190.5 -458.5t-458.5 -190.5q-193 0 -356 104l-262 -264v178zM352 637q0 211 148.5 359.5t359.5 148.5q203 0 350 -144l-714 -716q-144 149 -144 352zM477 637q0 -82 35 -156l504 504q-74 35 -156 35 q-158 -2 -270.5 -113.5t-112.5 -269.5zM508 272l717 717q141 -145 141 -352q0 -209 -148.5 -357.5t-357.5 -148.5q-207 0 -352 141zM702 291q74 -35 158 -35q158 0 269.5 111.5t111.5 269.5q0 84 -35 158z" />
<glyph unicode="&#xd9;" d="M143 469v1149l127 -125v-1024q0 -141 100.5 -241.5t241.5 -100.5q143 0 243.5 100.5t100.5 241.5v1024l125 125v-1149q0 -195 -137 -332t-332 -137q-190 0 -331 137q-138 142 -138 332zM287 469v1024l127 125v-1149q0 -80 57 -141q57 -57 141 -58q88 0 142 58 q59 59 59 141v1149l125 -125v-1024q0 -135 -95 -229.5t-231 -96.5q-135 2 -230 96.5t-95 229.5zM193 2200h178l486 -486l-267 88zM383 2212v178l398 -397l88 -267z" />
<glyph unicode="&#xda;" d="M143 469v1149l127 -125v-1024q0 -141 100.5 -241.5t241.5 -100.5q143 0 243.5 100.5t100.5 241.5v1024l125 125v-1149q0 -195 -137 -332t-332 -137q-190 0 -331 137q-138 142 -138 332zM287 469v1024l127 125v-1149q0 -80 57 -141q57 -57 141 -58q88 0 142 58 q59 59 59 141v1149l125 -125v-1024q0 -135 -95 -229.5t-231 -96.5q-135 2 -230 96.5t-95 229.5zM315 1726l485 486v178l-397 -397zM327 1714l266 88l398 398h-178z" />
<glyph unicode="&#xdb;" d="M143 469v1149l127 -125v-1024q0 -141 100.5 -241.5t241.5 -100.5q143 0 243.5 100.5t100.5 241.5v1024l125 125v-1149q0 -195 -137 -332t-332 -137q-190 0 -331 137q-138 142 -138 332zM287 469v1024l127 125v-1149q0 -80 57 -141q57 -57 141 -58q88 0 142 58 q59 59 59 141v1149l125 -125v-1024q0 -135 -95 -229.5t-231 -96.5q-135 2 -230 96.5t-95 229.5zM158 1909l465 465l464 -465h-178l-286 286l-287 -286h-178zM346 1718v178l277 275l274 -275v-178l-274 275z" />
<glyph unicode="&#xdc;" d="M143 469v1149l127 -125v-1024q0 -141 100.5 -241.5t241.5 -100.5q143 0 243.5 100.5t100.5 241.5v1024l125 125v-1149q0 -195 -137 -332t-332 -137q-190 0 -331 137q-138 142 -138 332zM287 469v1024l127 125v-1149q0 -80 57 -141q57 -57 141 -58q88 0 142 58 q59 59 59 141v1149l125 -125v-1024q0 -135 -95 -229.5t-231 -96.5q-135 2 -230 96.5t-95 229.5zM219 1716h268v268h-268v-268zM745 1716h269v268h-269v-268z" />
<glyph unicode="&#xdd;" d="M145 1139v467l125 -125v-342q0 -139 97.5 -239.5t236.5 -104.5v-670l-125 -125v688q-115 35 -196 119q-138 133 -138 332zM289 1139v342l125 125v-467q0 -86 59 -142q55 -59 141 -59q82 0 142 59q57 57 57 142v467l127 -125v-342q-2 -135 -97 -230.5t-229 -95.5 q-135 0 -230 95.5t-95 230.5zM623 125v670q139 4 236 104t97 240v342l127 125v-467q0 -197 -139 -332q-82 -84 -196 -119v-688zM315 1728l485 486v178l-397 -397zM327 1716l266 88l398 398h-178z" />
<glyph unicode="&#xde;" d="M158 0v1606l125 -125v-1356zM301 125v317h326q143 0 243.5 100.5t100.5 244t-100.5 243.5t-243.5 100h-326v351l125 125v-351h201q195 0 332 -137t137 -331.5t-137.5 -332t-329.5 -137.5h-203v-317zM301 461v651h326q135 0 230 -95t95 -230.5t-95 -230.5t-230 -95h-201 h-125zM426 586h203q86 4 139 59q59 59 59 141t-59 142q-55 59 -141 59h-201v-401z" />
<glyph unicode="&#xdf;" horiz-adv-x="1323" d="M78 690h127v-690l125 127v563v125h-125zM78 958h127v650h504q193 0 329 -138q139 -139 140 -331q0 -197 -140 -332l-2 -2v-2l2 -2q139 -139 139.5 -332t-139.5 -332q-137 -137 -329 -137h-152l127 127h25q141 0 241.5 100.5t100.5 241.5q0 121 -75 214t-190 122 q115 27 190 120t75 214q0 141 -100.5 241.5t-241.5 100.5h-379v-523v-124h-125zM348 127v1337h361q133 0 228 -96t97 -229q-2 -129 -99 -225.5t-216 -100.5h-2q-8 0 -8 -8q0 -10 8 -10q131 -2 223 -97.5t94 -228.5q-2 -135 -97 -229.5t-228 -96.5h-25l-127 127h152v-2 q82 0 141 60q57 61 57 141q0 84 -57 141q-59 59 -141 60q-53 2 -90 42t-37 93q0 55 40 94t95 39q78 4 133 59q57 57 57 142q0 80 -57 141q-61 57 -141 57v2v-2h-236v-1337z" />
<glyph unicode="&#xe0;" horiz-adv-x="1585" d="M141 4l158 387h-158l127 125h215l-178 -442zM141 659h267l380 949l383 -949h267l-127 -124h-224l-299 737l-296 -737h-224zM322 68l182 448h571l182 -448l-69 -164l-197 487h-403l-197 -487zM422 2200h178l485 -486l-266 88zM510 535l278 690l281 -690h-559zM612 2212 v178l398 -397l88 -267zM696 659h187l-95 230zM1096 516h217l125 -125h-158l158 -387l-164 70z" />
<glyph unicode="&#xe1;" horiz-adv-x="1601" d="M141 4l158 387h-158l127 125h215l-178 -442zM141 659h267l380 949l383 -949h267l-127 -124h-224l-299 737l-296 -737h-224zM322 68l182 448h571l182 -448l-69 -164l-197 487h-403l-197 -487zM479 1729l486 485v178l-398 -397zM492 1716l266 88l397 398h-178zM510 535 l278 690l281 -690h-559zM696 659h187l-95 230zM1096 516h217l125 -125h-158l158 -387l-164 70z" />
<glyph unicode="&#xe2;" horiz-adv-x="1570" d="M141 4l158 387h-158l127 125h215l-178 -442zM141 659h267l380 949l383 -949h267l-127 -124h-224l-299 737l-296 -737h-224zM322 68l182 448h571l182 -448l-69 -164l-197 487h-403l-197 -487zM324 1909l464 465l465 -465h-178l-287 286l-286 -286h-178zM510 535l278 690 l281 -690h-559zM512 1718v178l276 275l275 -275v-178l-275 275zM696 659h187l-95 230zM1096 516h217l125 -125h-158l158 -387l-164 70z" />
<glyph unicode="&#xe3;" horiz-adv-x="1581" d="M141 4l158 387h-158l127 125h215l-178 -442zM141 659h267l380 949l383 -949h267l-127 -124h-224l-299 737l-296 -737h-224zM315 1950l88 90q98 96 236.5 96t237.5 -96q18 -20 45.5 -20.5t46.5 18.5l90 90v-178q-57 -55 -136 -55.5t-135 55.5q-61 61 -148 61t-148 -61 h-177zM322 68l182 448h571l182 -448l-69 -164l-197 487h-403l-197 -487zM504 1761v176q57 57 136 57.5t134 -57.5q61 -61 148.5 -61t148.5 61h176l-88 -88q-98 -98 -236.5 -98t-236.5 98q-18 18 -46 18.5t-46 -18.5zM510 535l278 690l281 -690h-559zM696 659h187l-95 230z M1096 516h217l125 -125h-158l158 -387l-164 70z" />
<glyph unicode="&#xe4;" horiz-adv-x="1560" d="M141 4l158 387h-158l127 125h215l-178 -442zM141 659h267l380 949l383 -949h267l-127 -124h-224l-299 737l-296 -737h-224zM322 68l182 448h571l182 -448l-69 -164l-197 487h-403l-197 -487zM391 1718h268v269h-268v-269zM510 535l278 690l281 -690h-559zM696 659h187 l-95 230zM918 1718h268v269h-268v-269zM1096 516h217l125 -125h-158l158 -387l-164 70z" />
<glyph unicode="&#xe5;" horiz-adv-x="1574" d="M141 4l158 387h-158l127 125h215l-178 -442zM141 659h267l380 949l383 -949h267l-127 -124h-224l-299 737l-296 -737h-224zM322 68l182 448h571l182 -448l-69 -164l-197 487h-403l-197 -487zM453 2034q0 137 97 235t236.5 98t236.5 -98t97 -235q0 -139 -97 -237.5 t-236.5 -98.5t-236.5 98.5t-97 237.5zM510 535l278 690l281 -690h-559zM578 2034q0 -88 61 -149.5t147 -61.5t147.5 61.5t61.5 149.5q0 86 -61.5 147.5t-147.5 61.5t-147 -61.5t-61 -147.5zM596 2034q0 78 55.5 134t135 56t135 -56.5t55.5 -133.5q0 -80 -55.5 -136.5 t-135 -56.5t-135 56.5t-55.5 136.5zM696 659h187l-95 230zM721 2034q0 -29 19.5 -48.5t46 -19.5t46 19.5t19.5 48.5q0 27 -19.5 46t-46 19t-46 -19t-19.5 -46zM1096 516h217l125 -125h-158l158 -387l-164 70z" />
<glyph unicode="&#xe6;" horiz-adv-x="1538" d="M143 0v1137q0 193 138 333q137 137 331 138h789l-125 -127h-428h-236q-143 0 -243.5 -100.5t-100.5 -241.5v-1014zM287 125v672h450v-672h539l125 -125h-789v670h-200v-670zM287 813v326q0 133 95 228t230 97h125v-651h-450zM412 940h200v397q-84 0 -141 -57 q-59 -59 -59 -143v-197zM756 143v654h393l127 -127h-395v-402h520l-125 -125h-520zM756 813v651h520l125 -127h-520v-397h395l-127 -127h-393z" />
<glyph unicode="&#xe7;" d="M145 473v670q0 195 137.5 332t331.5 137q190 0 332 -137q137 -141 137 -332v-125l-127 125q0 143 -100 243.5t-242 100.5q-143 0 -243.5 -100.5t-100.5 -243.5v-670q0 -139 97.5 -239.5t236.5 -102.5l-84 -158l8 -4q70 -35 92.5 -109.5t-14.5 -144.5q-35 -70 -109.5 -92 t-144.5 12l-51 170l111 -57q23 -12 47 -5t36.5 29.5t4.5 48t-31 38.5l-117 63l66 125q-80 39 -135 96q-138 133 -138 330zM174 -432l170 53q45 -25 96 -24q123 0 183 110q39 72 16 153t-94 122l80 149q139 4 235 104.5t96 237.5l127 127v-127q0 -193 -137 -330 q-100 -100 -241 -129l-3 -6q59 -76 68.5 -173t-37.5 -187q-43 -84 -123 -130t-170 -46q-84 0 -155 39zM289 473q0 -133 95 -228t230 -98q133 2 229.5 97.5t96.5 228.5l-127 127v-127q0 -80 -57 -141q-61 -57 -142 -58q-84 0 -141 58q-59 59 -59 141v670q0 82 59 141 q55 59 141 59q82 0 142 -59q57 -61 57 -141v-125l127 125q0 135 -96 230t-230 95q-135 0 -230 -95t-95 -230v-670z" />
<glyph unicode="&#xe8;" d="M152 0v1608h933l-127 -127h-679v-1354h679l127 -127h-933zM297 143v672h537l124 -125h-536v-420h663l-127 -127h-661zM297 834v630h661l127 -127h-663v-379h536l-124 -124h-537zM254 2200h178l486 -486l-267 88zM444 2212v178l398 -397l88 -267z" />
<glyph unicode="&#xe9;" d="M152 0v1608h933l-127 -127h-679v-1354h679l127 -127h-933zM297 143v672h537l124 -125h-536v-420h663l-127 -127h-661zM297 834v630h661l127 -127h-663v-379h536l-124 -124h-537zM254 1726l485 486v178l-397 -397zM266 1714l266 88l398 398h-178z" />
<glyph unicode="&#xea;" d="M152 0v1608h933l-127 -127h-679v-1354h679l127 -127h-933zM297 143v672h537l124 -125h-536v-420h663l-127 -127h-661zM297 834v630h661l127 -127h-663v-379h536l-124 -124h-537zM158 1909l465 465l464 -465h-178l-286 286l-287 -286h-178zM346 1718v178l277 275l274 -275 v-178l-274 275z" />
<glyph unicode="&#xeb;" d="M152 0v1608h933l-127 -127h-679v-1354h679l127 -127h-933zM297 143v672h537l124 -125h-536v-420h663l-127 -127h-661zM297 834v630h661l127 -127h-663v-379h536l-124 -124h-537zM219 1716h268v268h-268v-268zM745 1716h269v268h-269v-268z" />
<glyph unicode="&#xec;" horiz-adv-x="980" d="M141 0l125 125h436l125 -125h-686zM141 268h209v1069h-209l125 127h209v-2v-1319h-209zM141 1606h686l-125 -125h-436zM145 2200h179l485 -486l-266 88zM336 2212v178l397 -397l88 -267zM494 143v1321h208l125 -127h-209v-1069h209l-125 -125h-208z" />
<glyph unicode="&#xed;" horiz-adv-x="976" d="M141 0l125 125h436l125 -125h-686zM141 268h209v1069h-209l125 127h209v-2v-1319h-209zM141 1606h686l-125 -125h-436zM143 1726l486 486v178l-398 -397zM156 1714l266 88l397 398h-178zM494 143v1321h208l125 -127h-209v-1069h209l-125 -125h-208z" />
<glyph unicode="&#xee;" horiz-adv-x="980" d="M18 1909l465 465l465 -465h-178l-287 286l-286 -286h-179zM141 0l125 125h436l125 -125h-686zM141 268h209v1069h-209l125 127h209v-2v-1319h-209zM141 1606h686l-125 -125h-436zM207 1718v178l276 275l275 -275v-178l-275 275zM494 143v1321h208l125 -127h-209v-1069 h209l-125 -125h-208z" />
<glyph unicode="&#xef;" horiz-adv-x="987" d="M88 1718h268v269h-268v-269zM141 0l125 125h436l125 -125h-686zM141 268h209v1069h-209l125 127h209v-2v-1319h-209zM141 1606h686l-125 -125h-436zM494 143v1321h208l125 -127h-209v-1069h209l-125 -125h-208zM614 1718h269v269h-269v-269z" />
<glyph unicode="&#xf0;" horiz-adv-x="1380" d="M41 670l125 125h262v-670h342q143 0 243.5 101.5t100.5 242.5v668q0 143 -100.5 243.5t-243.5 100.5h-342v-668h-262l-125 125h260v670h469q197 0 332 -140q137 -133 137 -331v-668q0 -195 -137 -332t-332 -137h-469v670h-260zM444 143v652h261l124 -125h-258v-402h199 q86 0 141 60q59 59 60 141v668q0 84 -60 143q-57 57 -141 57h-199v-399h258l-124 -125h-261v651h326q135 -2 230.5 -97t95.5 -230v-668q0 -135 -95.5 -230.5t-230.5 -95.5h-326z" />
<glyph unicode="&#xf1;" d="M137 0v1612l672 -846v842l125 -125v-1077l-670 845v-1124zM281 127v1073l671 -846v1129l125 125v-1614l-669 846v-840zM156 1948l88 90q98 96 236.5 96t236.5 -96q18 -20 46 -20t46 18l90 90v-178q-57 -55 -136 -55t-134 55q-61 61 -148.5 61t-148.5 -61h-176zM344 1760 v176q57 57 136 57t135 -57q61 -61 148 -61.5t149 61.5h176l-88 -88q-98 -98 -236.5 -98.5t-236.5 98.5q-18 18 -46 18t-47 -18z" />
<glyph unicode="&#xf2;" d="M135 469v670q0 195 137.5 332t331.5 137q193 0 330 -138q139 -139 139 -331v-670q0 -193 -139 -332q-137 -137 -330 -137q-195 0 -332 137t-137 332zM260 469q0 -141 100.5 -241.5t243.5 -100.5q141 0 241.5 100.5t100.5 241.5v670q0 141 -100.5 241.5t-241.5 100.5 q-143 0 -243.5 -100.5t-100.5 -241.5v-670zM279 469v670q0 133 95 229t230 96q133 0 228.5 -96t95.5 -229v-670q0 -135 -94.5 -229.5t-229.5 -96.5q-135 2 -230 96.5t-95 229.5zM403 469q0 -80 58 -141q57 -57 143 -58q84 0 141 58q57 61 58 141v670q0 80 -58 141 q-61 57 -141 57q-82 0 -143 -57q-57 -61 -58 -141v-670zM254 2202h178l486 -486l-267 88zM444 2214v178l398 -397l88 -267z" />
<glyph unicode="&#xf3;" d="M135 469v670q0 195 137.5 332t331.5 137q193 0 330 -138q139 -139 139 -331v-670q0 -193 -139 -332q-137 -137 -330 -137q-195 0 -332 137t-137 332zM260 469q0 -141 100.5 -241.5t243.5 -100.5q141 0 241.5 100.5t100.5 241.5v670q0 141 -100.5 241.5t-241.5 100.5 q-143 0 -243.5 -100.5t-100.5 -241.5v-670zM279 469v670q0 133 95 229t230 96q133 0 228.5 -96t95.5 -229v-670q0 -135 -94.5 -229.5t-229.5 -96.5q-135 2 -230 96.5t-95 229.5zM403 469q0 -80 58 -141q57 -57 143 -58q84 0 141 58q57 61 58 141v670q0 80 -58 141 q-61 57 -141 57q-82 0 -143 -57q-57 -61 -58 -141v-670zM254 1728l485 486v178l-397 -397zM266 1716l266 88l398 398h-178z" />
<glyph unicode="&#xf4;" d="M135 469v670q0 195 137.5 332t331.5 137q193 0 330 -138q139 -139 139 -331v-670q0 -193 -139 -332q-137 -137 -330 -137q-195 0 -332 137t-137 332zM260 469q0 -141 100.5 -241.5t243.5 -100.5q141 0 241.5 100.5t100.5 241.5v670q0 141 -100.5 241.5t-241.5 100.5 q-143 0 -243.5 -100.5t-100.5 -241.5v-670zM279 469v670q0 133 95 229t230 96q133 0 228.5 -96t95.5 -229v-670q0 -135 -94.5 -229.5t-229.5 -96.5q-135 2 -230 96.5t-95 229.5zM403 469q0 -80 58 -141q57 -57 143 -58q84 0 141 58q57 61 58 141v670q0 80 -58 141 q-61 57 -141 57q-82 0 -143 -57q-57 -61 -58 -141v-670zM146 1909l465 465l464 -465h-178l-286 286l-287 -286h-178zM334 1718v178l277 275l274 -275v-178l-274 275z" />
<glyph unicode="&#xf5;" d="M135 469v670q0 195 137.5 332t331.5 137q193 0 330 -138q139 -139 139 -331v-670q0 -193 -139 -332q-137 -137 -330 -137q-195 0 -332 137t-137 332zM260 469q0 -141 100.5 -241.5t243.5 -100.5q141 0 241.5 100.5t100.5 241.5v670q0 141 -100.5 241.5t-241.5 100.5 q-143 0 -243.5 -100.5t-100.5 -241.5v-670zM279 469v670q0 133 95 229t230 96q133 0 228.5 -96t95.5 -229v-670q0 -135 -94.5 -229.5t-229.5 -96.5q-135 2 -230 96.5t-95 229.5zM403 469q0 -80 58 -141q57 -57 143 -58q84 0 141 58q57 61 58 141v670q0 80 -58 141 q-61 57 -141 57q-82 0 -143 -57q-57 -61 -58 -141v-670zM137 1948l88 90q98 96 236.5 96t236.5 -96q18 -20 46 -20t46 18l90 90v-178q-57 -55 -136 -55t-134 55q-61 61 -148.5 61t-148.5 -61h-176zM325 1760v176q57 57 136 57t135 -57q61 -61 148 -61.5t149 61.5h176 l-88 -88q-98 -98 -236.5 -98.5t-236.5 98.5q-18 18 -46 18t-47 -18z" />
<glyph unicode="&#xf6;" d="M135 469v670q0 195 137.5 332t331.5 137q193 0 330 -138q139 -139 139 -331v-670q0 -193 -139 -332q-137 -137 -330 -137q-195 0 -332 137t-137 332zM260 469q0 -141 100.5 -241.5t243.5 -100.5q141 0 241.5 100.5t100.5 241.5v670q0 141 -100.5 241.5t-241.5 100.5 q-143 0 -243.5 -100.5t-100.5 -241.5v-670zM279 469v670q0 133 95 229t230 96q133 0 228.5 -96t95.5 -229v-670q0 -135 -94.5 -229.5t-229.5 -96.5q-135 2 -230 96.5t-95 229.5zM403 469q0 -80 58 -141q57 -57 143 -58q84 0 141 58q57 61 58 141v670q0 80 -58 141 q-61 57 -141 57q-82 0 -143 -57q-57 -61 -58 -141v-670zM219 1716h268v268h-268v-268zM745 1716h269v268h-269v-268z" />
<glyph unicode="&#xf7;" horiz-adv-x="1443" d="M121 670l127 125h938l125 -125h-1190zM121 938h1190l-125 -125h-938zM582 477l135 -133l133 133l-133 135zM582 1128l135 -133l133 133l-133 136z" />
<glyph unicode="&#xf8;" horiz-adv-x="1732" d="M51 18l262 265q-104 164 -104 354q0 270 190.5 460.5t460.5 190.5q193 0 354 -106l252 254v-179l-241 -241q-154 147 -365 147q-217 0 -371.5 -153.5t-154.5 -372.5q0 -211 147 -365l-254 -254h-176zM242 6l252 254q154 -147 366 -147q217 0 370.5 153.5t153.5 370.5 q0 213 -147 364l244 244h176l-252 -252q104 -164 104 -356q0 -268 -190.5 -458.5t-458.5 -190.5q-193 0 -356 104l-262 -264v178zM352 637q0 211 148.5 359.5t359.5 148.5q203 0 350 -144l-714 -716q-144 149 -144 352zM477 637q0 -82 35 -156l504 504q-74 35 -156 35 q-158 -2 -270.5 -113.5t-112.5 -269.5zM508 272l717 717q141 -145 141 -352q0 -209 -148.5 -357.5t-357.5 -148.5q-207 0 -352 141zM702 291q74 -35 158 -35q158 0 269.5 111.5t111.5 269.5q0 84 -35 158z" />
<glyph unicode="&#xf9;" d="M143 469v1149l127 -125v-1024q0 -141 100.5 -241.5t241.5 -100.5q143 0 243.5 100.5t100.5 241.5v1024l125 125v-1149q0 -195 -137 -332t-332 -137q-190 0 -331 137q-138 142 -138 332zM287 469v1024l127 125v-1149q0 -80 57 -141q57 -57 141 -58q88 0 142 58 q59 59 59 141v1149l125 -125v-1024q0 -135 -95 -229.5t-231 -96.5q-135 2 -230 96.5t-95 229.5zM193 2202h178l486 -486l-267 88zM383 2214v178l398 -397l88 -267z" />
<glyph unicode="&#xfa;" d="M143 469v1149l127 -125v-1024q0 -141 100.5 -241.5t241.5 -100.5q143 0 243.5 100.5t100.5 241.5v1024l125 125v-1149q0 -195 -137 -332t-332 -137q-190 0 -331 137q-138 142 -138 332zM287 469v1024l127 125v-1149q0 -80 57 -141q57 -57 141 -58q88 0 142 58 q59 59 59 141v1149l125 -125v-1024q0 -135 -95 -229.5t-231 -96.5q-135 2 -230 96.5t-95 229.5zM234 1728l485 486v178l-397 -397zM246 1716l266 88l398 398h-178z" />
<glyph unicode="&#xfb;" d="M143 469v1149l127 -125v-1024q0 -141 100.5 -241.5t241.5 -100.5q143 0 243.5 100.5t100.5 241.5v1024l125 125v-1149q0 -195 -137 -332t-332 -137q-190 0 -331 137q-138 142 -138 332zM287 469v1024l127 125v-1149q0 -80 57 -141q57 -57 141 -58q88 0 142 58 q59 59 59 141v1149l125 -125v-1024q0 -135 -95 -229.5t-231 -96.5q-135 2 -230 96.5t-95 229.5zM138 1909l465 465l464 -465h-178l-286 286l-287 -286h-178zM326 1718v178l277 275l274 -275v-178l-274 275z" />
<glyph unicode="&#xfc;" d="M143 469v1149l127 -125v-1024q0 -141 100.5 -241.5t241.5 -100.5q143 0 243.5 100.5t100.5 241.5v1024l125 125v-1149q0 -195 -137 -332t-332 -137q-190 0 -331 137q-138 142 -138 332zM287 469v1024l127 125v-1149q0 -80 57 -141q57 -57 141 -58q88 0 142 58 q59 59 59 141v1149l125 -125v-1024q0 -135 -95 -229.5t-231 -96.5q-135 2 -230 96.5t-95 229.5zM219 1716h268v268h-268v-268zM745 1716h269v268h-269v-268z" />
<glyph unicode="&#xfd;" d="M145 1139v467l125 -125v-342q0 -139 97.5 -239.5t236.5 -104.5v-670l-125 -125v688q-115 35 -196 119q-138 133 -138 332zM289 1139v342l125 125v-467q0 -86 59 -142q55 -59 141 -59q82 0 142 59q57 57 57 142v467l127 -125v-342q-2 -135 -97 -230.5t-229 -95.5 q-135 0 -230 95.5t-95 230.5zM623 125v670q139 4 236 104t97 240v342l127 125v-467q0 -197 -139 -332q-82 -84 -196 -119v-688zM213 1726l485 486v178l-397 -397zM225 1714l266 88l398 398h-178z" />
<glyph unicode="&#xfe;" d="M158 0v1606l125 -125v-1356zM301 125v317h326q143 0 243.5 100.5t100.5 244t-100.5 243.5t-243.5 100h-326v351l125 125v-351h201q195 0 332 -137t137 -331.5t-137.5 -332t-329.5 -137.5h-203v-317zM301 461v651h326q135 0 230 -95t95 -230.5t-95 -230.5t-230 -95h-201 h-125zM426 586h203q86 4 139 59q59 59 59 141t-59 142q-55 59 -141 59h-201v-401z" />
<glyph unicode="&#xff;" d="M145 1139v467l125 -125v-342q0 -139 97.5 -239.5t236.5 -104.5v-670l-125 -125v688q-115 35 -196 119q-138 133 -138 332zM289 1139v342l125 125v-467q0 -86 59 -142q55 -59 141 -59q82 0 142 59q57 57 57 142v467l127 -125v-342q-2 -135 -97 -230.5t-229 -95.5 q-135 0 -230 95.5t-95 230.5zM623 125v670q139 4 236 104t97 240v342l127 125v-467q0 -197 -139 -332q-82 -84 -196 -119v-688zM217 1719h268v268h-268v-268zM743 1719h269v268h-269v-268z" />
<glyph unicode="&#x152;" horiz-adv-x="1658" d="M137 469v668q0 190 137 331q141 137 332 138h932l-125 -125h-807q-141 0 -241.5 -100.5t-100.5 -243.5l-2 -668q2 -143 102.5 -243.5t241.5 -100.5h807l125 -125h-932q-195 0 -332 137t-137 332zM281 469v668q2 135 96 230t229 95h127v-1319h-127q-135 0 -230 95.5 t-95 230.5zM408 469q0 -88 57 -141q59 -59 141 -60v1069q-82 0 -141 -59q-57 -57 -57 -141v-668zM750 143v670h538l125 -125h-536v-420h661l-125 -125h-663zM750 831v631h663l125 -125h-661v-381h536l-125 -125h-538z" />
<glyph unicode="&#x153;" horiz-adv-x="1675" d="M137 469v668q0 190 137 331q141 137 332 138h932l-125 -125h-807q-141 0 -241.5 -100.5t-100.5 -243.5l-2 -668q2 -143 102.5 -243.5t241.5 -100.5h807l125 -125h-932q-195 0 -332 137t-137 332zM281 469v668q2 135 96 230t229 95h127v-1319h-127q-135 0 -230 95.5 t-95 230.5zM408 469q0 -88 57 -141q59 -59 141 -60v1069q-82 0 -141 -59q-57 -57 -57 -141v-668zM750 143v670h538l125 -125h-536v-420h661l-125 -125h-663zM750 831v631h663l125 -125h-661v-381h536l-125 -125h-538z" />
<glyph unicode="&#x178;" d="M145 1139v467l125 -125v-342q0 -139 97.5 -239.5t236.5 -104.5v-670l-125 -125v688q-115 35 -196 119q-138 133 -138 332zM289 1139v342l125 125v-467q0 -86 59 -142q55 -59 141 -59q82 0 142 59q57 57 57 142v467l127 -125v-342q-2 -135 -97 -230.5t-229 -95.5 q-135 0 -230 95.5t-95 230.5zM623 125v670q139 4 236 104t97 240v342l127 125v-467q0 -197 -139 -332q-82 -84 -196 -119v-688zM219 2018h268v268h-268v-268zM745 2018h269v268h-269v-268z" />
<glyph unicode="&#x2c6;" d="M158 1909l465 465l464 -465h-178l-286 286l-287 -286h-178zM346 1718v178l277 275l274 -275v-178l-274 275z" />
<glyph unicode="&#x2dc;" d="M125 1919l88 90q98 96 236.5 96t236.5 -96q18 -20 46 -20t46 18l90 90v-178q-57 -55 -136 -55t-134 55q-61 61 -148.5 61t-148.5 -61h-176zM313 1731v176q57 57 136 57t135 -57q61 -61 148 -61.5t149 61.5h176l-88 -88q-98 -98 -236.5 -98.5t-236.5 98.5q-18 18 -46 18 t-47 -18z" />
<glyph unicode="&#x2000;" horiz-adv-x="1196" />
<glyph unicode="&#x2001;" horiz-adv-x="2394" />
<glyph unicode="&#x2002;" horiz-adv-x="1196" />
<glyph unicode="&#x2003;" horiz-adv-x="2394" />
<glyph unicode="&#x2004;" horiz-adv-x="796" />
<glyph unicode="&#x2005;" horiz-adv-x="598" />
<glyph unicode="&#x2006;" horiz-adv-x="397" />
<glyph unicode="&#x2007;" horiz-adv-x="397" />
<glyph unicode="&#x2008;" horiz-adv-x="299" />
<glyph unicode="&#x2009;" horiz-adv-x="477" />
<glyph unicode="&#x200a;" horiz-adv-x="131" />
<glyph unicode="&#x2010;" horiz-adv-x="1460" d="M139 670l125 125h938l125 -125h-1188zM139 938h1188l-125 -125h-938z" />
<glyph unicode="&#x2011;" horiz-adv-x="1460" d="M139 670l125 125h938l125 -125h-1188zM139 938h1188l-125 -125h-938z" />
<glyph unicode="&#x2012;" horiz-adv-x="1460" d="M139 670l125 125h938l125 -125h-1188zM139 938h1188l-125 -125h-938z" />
<glyph unicode="&#x2013;" d="M131 670l125 125h688l125 -125h-938zM131 938h938l-125 -125h-688z" />
<glyph unicode="&#x2014;" horiz-adv-x="1497" d="M139 670l125 125h938l125 -125h-1188zM139 938h1188l-125 -125h-938z" />
<glyph unicode="&#x2018;" d="M106 1444v268h269v-268h-144v-125z" />
<glyph unicode="&#x2019;" d="M850 1444v268h268v-268l-125 -125v125h-143z" />
<glyph unicode="&#x201c;" d="M106 1444v268h269v-268h-144v-125zM449 1444l124 -125v125h144l-2 268h-266v-268z" />
<glyph unicode="&#x201d;" d="M508 1444v268h268v-268l-125 -125v125h-143zM850 1444v268h268v-268l-125 -125v125h-143z" />
<glyph unicode="&#x2022;" d="M285 793q0 137 97 235t236.5 98t236.5 -98t97 -235q0 -139 -97 -237.5t-236.5 -98.5t-236.5 98.5t-97 237.5zM410 793q0 -88 61 -149.5t147.5 -61.5t147.5 61.5t61 149.5q0 86 -61 147t-147.5 61t-147.5 -61t-61 -147zM428 793q0 78 55.5 134t135 56t135 -56.5 t55.5 -133.5q0 -80 -55.5 -136.5t-135 -56.5t-135 56.5t-55.5 136.5zM553 793q0 -29 19.5 -48.5t46 -19.5t46 19.5t19.5 48.5q0 27 -19.5 46t-46 19t-46 -19t-19.5 -46z" />
<glyph unicode="&#x2026;" d="M66 0h268v268h-268v-268zM426 0h268v268h-268v-268zM776 0h268v268h-268v-268z" />
<glyph unicode="&#x202f;" horiz-adv-x="477" />
<glyph unicode="&#x2039;" horiz-adv-x="1665" d="M96 817l1301 752l-45 -170l-1004 -582l1004 -579l45 -170zM383 817l977 -563l172 47l-897 516l897 520l-172 45z" />
<glyph unicode="&#x203a;" horiz-adv-x="1695" d="M119 313l172 -45l977 566l-977 563l-172 -47l897 -516zM254 82l45 170l1004 582l-1004 579l-45 170l1300 -749z" />
<glyph unicode="&#x205f;" horiz-adv-x="598" />
<glyph unicode="&#x20ac;" horiz-adv-x="1832" d="M141 469l127 125h148q68 -207 245 -338t400 -131q281 0 479 199h178l-88 -88q-236 -236 -569 -236q-240 0 -437.5 129t-291.5 340h-191zM141 737h119q-2 23 -2 66q0 45 2 65h-119l127 125h144q-29 -92 -29 -190q0 -94 29 -191h-144zM141 1137h191q94 211 291.5 340 t437.5 129q330 2 569 -234l88 -90h-178q-199 199 -479 199q-223 0 -400.5 -131t-244.5 -338h-148zM401 803q0 98 29 190h506l125 -125h-531q-4 -41 -4 -65q0 -20 4 -66h531l-125 -125h-506q-29 93 -29 191zM436 594h500l125 -125h-416q164 -201 416 -201q221 0 379 158 l88 88v-178q-193 -193 -467 -193q-270 0 -467 193q-107 106 -158 258zM436 1012q51 152 158 258q197 193 467 192q274 0 467 -192v-178l-88 90q-160 156 -379 155q-123 0 -231.5 -53t-184.5 -147h416l-125 -125h-500z" />
<glyph unicode="&#x2122;" horiz-adv-x="1990" d="M111 1163l125 125v2h223v-530l-125 -125v528h-223zM111 1434h718l-124 -127h-469zM477 760v530h228l124 -127h-227v-528zM934 639v524v2v277l82 -82q78 82 194 82q78 0 144 -39q68 39 143 39q115 0 197 -82t82 -197v-524l-125 125v399q0 63 -45 108.5t-109 45.5 q-16 0 -49 -8q-70 -27 -94 -95q-23 68 -94 95q-29 8 -50 8q-63 0 -107 -45t-44 -109v-399zM1077 764v399q0 55 39 95t94 40q23 0 41 -6q41 -12 68 -48t27 -81v-207l-125 -127v334v2q0 8 -11 9q-8 0 -8 -11v-524zM1364 954v209q0 45 26.5 81t67.5 48q18 6 39 6q57 0 96 -39.5 t39 -95.5v-399l-125 -125v524q0 10 -10 11q-8 0 -8 -9v-2v-334z" />
<glyph unicode="&#xe000;" horiz-adv-x="1610" d="M0 1610h1610v-1610h-1610v1610z" />
<glyph unicode="&#xfb01;" horiz-adv-x="2209" d="M1370 0l125 125h436l125 -125h-686zM1370 268h209v1069h-209l125 127h209v-2v-1319h-209zM1370 1606h686l-125 -125h-436zM1723 143v1321h208l125 -127h-209v-1069h209l-125 -125h-208zM147 0v1606h932l-125 -125h-682v-1356zM291 125v688h538l125 -125h-538v-688z M291 831v631h663l125 -125h-663v-381h538l-125 -125h-538z" />
<glyph unicode="&#xfb02;" horiz-adv-x="2457" d="M1385 0v1612l125 -125v-1362h682l124 -125h-931zM1528 143v1344l125 125v-1344h663l-124 -125h-664zM147 0v1606h932l-125 -125h-682v-1356zM291 125v688h538l125 -125h-538v-688zM291 831v631h663l125 -125h-663v-381h538l-125 -125h-538z" />
<glyph unicode="&#xfb03;" horiz-adv-x="3438" d="M2599 0l125 125h436l125 -125h-686zM2599 268h209v1069h-209l125 127h209v-2v-1319h-209zM2599 1606h686l-125 -125h-436zM2952 143v1321h208l125 -127h-209v-1069h209l-125 -125h-208zM1376 0v1606h932l-125 -125h-682v-1356zM1520 125v688h538l125 -125h-538v-688z M1520 831v631h663l125 -125h-663v-381h538l-125 -125h-538zM147 0v1606h932l-125 -125h-682v-1356zM291 125v688h538l125 -125h-538v-688zM291 831v631h663l125 -125h-663v-381h538l-125 -125h-538z" />
<glyph unicode="&#xfb04;" horiz-adv-x="3686" d="M2614 0v1612l125 -125v-1362h682l124 -125h-931zM2757 143v1344l125 125v-1344h663l-124 -125h-664zM1376 0v1606h932l-125 -125h-682v-1356zM1520 125v688h538l125 -125h-538v-688zM1520 831v631h663l125 -125h-663v-381h538l-125 -125h-538zM147 0v1606h932l-125 -125 h-682v-1356zM291 125v688h538l125 -125h-538v-688zM291 831v631h663l125 -125h-663v-381h538l-125 -125h-538z" />
</font>
</defs>
</svg>
